<?xml version="1.0" encoding="utf-8"?>
<!-- Generator: Adobe Illustrator 25.2.3, SVG Export Plug-In . SVG Version: 6.00 Build 0)  -->
<svg version="1.1" id="_x37_64c810a-bab7-4802-bb71-9ae745d19308"
	 xmlns="http://www.w3.org/2000/svg" xmlns:xlink="http://www.w3.org/1999/xlink" x="0px" y="0px" viewBox="0 0 864 711.5"
	 style="enable-background:new 0 0 864 711.5;" xml:space="preserve">
<style type="text/css">
	.st0{opacity:0.2;fill:#ECEFF1;enable-background:new    ;}
	.st1{opacity:0.2;}
	.st2{fill:none;}
	.st3{fill:none;stroke:#0000FF;stroke-miterlimit:10;}
	.st4{fill:none;stroke:#0000FF;stroke-miterlimit:10;stroke-dasharray:10.75,10.75;}
	.st5{fill:none;stroke:#0000FF;stroke-miterlimit:10;stroke-dasharray:12.5,12.5;}
	.st6{fill:none;stroke:#0000FF;stroke-miterlimit:10;stroke-dasharray:11.48,11.48;}
	.st7{fill:none;stroke:#0000FF;stroke-miterlimit:10;stroke-dasharray:12.07,12.07;}
	.st8{fill:none;stroke:#0000FF;stroke-miterlimit:10;stroke-dasharray:11.7,11.7;}
	.st9{fill:none;stroke:#0000FF;stroke-miterlimit:10;stroke-dasharray:11.81,11.81;}
	.st10{fill:none;stroke:#0000FF;stroke-miterlimit:10;stroke-dasharray:12.06,12.06;}
	.st11{fill:url(#SVGID_1_);}
	.st12{fill:url(#SVGID_2_);}
	.st13{fill:url(#SVGID_3_);}
	.st14{fill:url(#SVGID_4_);}
	.st15{fill:url(#SVGID_5_);}
	.st16{fill:url(#SVGID_6_);}
	.st17{fill:url(#SVGID_7_);}
	.st18{fill:url(#SVGID_8_);}
	.st19{fill:#56BFBD;}
	.st20{fill:url(#SVGID_9_);}
	.st21{fill:#F6B9AD;}
	.st22{fill:#E96857;}
	.st23{fill:#E96A59;}
	.st24{fill:#76B6D7;}
	.st25{fill:none;stroke:#47E6B1;stroke-width:2;stroke-miterlimit:10;}
	.st26{fill:url(#SVGID_10_);}
	.st27{fill:#5989A1;}
	.st28{fill:#FCCC63;}
	.st29{fill:#B98B82;}
	.st30{fill:#3D203C;}
	.st31{fill:url(#SVGID_11_);}
	.st32{fill:#5F98BE;}
	.st33{fill:#3D213C;}
</style>
<polygon class="st0" points="130.5,660.4 130.5,573.2 215.7,486 292.1,430.2 371.8,346.7 465.8,309.1 586.4,309.1 686,188 
	772.3,81.4 772.3,660.4 "/>
<g class="st1">
	<line class="st2" x1="132.8" y1="558.5" x2="132.8" y2="645.7"/>
	<line class="st3" x1="132.8" y1="558.5" x2="132.8" y2="564.5"/>
	<line class="st4" x1="132.8" y1="575.2" x2="132.8" y2="634.3"/>
	<line class="st3" x1="132.8" y1="639.7" x2="132.8" y2="645.7"/>
	<line class="st2" x1="226.1" y1="471.3" x2="226.1" y2="645.7"/>
	<line class="st3" x1="226.1" y1="471.3" x2="226.1" y2="477.3"/>
	<line class="st5" x1="226.1" y1="489.8" x2="226.1" y2="633.5"/>
	<line class="st3" x1="226.1" y1="639.7" x2="226.1" y2="645.7"/>
	<line class="st2" x1="314.2" y1="415.6" x2="314.2" y2="645.7"/>
	<line class="st3" x1="314.2" y1="415.6" x2="314.2" y2="421.6"/>
	<line class="st6" x1="314.2" y1="433" x2="314.2" y2="634"/>
	<line class="st3" x1="314.2" y1="639.7" x2="314.2" y2="645.7"/>
	<line class="st2" x1="405.9" y1="332" x2="405.9" y2="645.7"/>
	<line class="st3" x1="405.9" y1="332" x2="405.9" y2="338"/>
	<line class="st7" x1="405.9" y1="350" x2="405.9" y2="633.7"/>
	<line class="st3" x1="405.9" y1="639.7" x2="405.9" y2="645.7"/>
	<line class="st2" x1="499.8" y1="294.4" x2="499.8" y2="645.7"/>
	<line class="st3" x1="499.8" y1="294.4" x2="499.8" y2="300.4"/>
	<line class="st8" x1="499.8" y1="312.1" x2="499.8" y2="633.9"/>
	<line class="st3" x1="499.8" y1="639.7" x2="499.8" y2="645.7"/>
	<line class="st2" x1="589" y1="294.4" x2="589" y2="645.7"/>
	<line class="st3" x1="589" y1="294.4" x2="589" y2="300.4"/>
	<line class="st8" x1="589" y1="312.1" x2="589" y2="633.9"/>
	<line class="st3" x1="589" y1="639.7" x2="589" y2="645.7"/>
	<line class="st2" x1="682.2" y1="173.3" x2="682.2" y2="645.7"/>
	<line class="st3" x1="682.2" y1="173.3" x2="682.2" y2="179.3"/>
	<line class="st9" x1="682.2" y1="191.1" x2="682.2" y2="633.8"/>
	<line class="st3" x1="682.2" y1="639.7" x2="682.2" y2="645.7"/>
	<line class="st2" x1="772.2" y1="66.7" x2="772.2" y2="645.7"/>
	<line class="st3" x1="772.2" y1="66.7" x2="772.2" y2="72.7"/>
	<line class="st10" x1="772.2" y1="84.8" x2="772.2" y2="633.7"/>
	<line class="st3" x1="772.2" y1="639.7" x2="772.2" y2="645.7"/>
</g>
<linearGradient id="SVGID_1_" gradientUnits="userSpaceOnUse" x1="132.79" y1="132.47" x2="132.79" y2="178.51" gradientTransform="matrix(1 0 0 -1 0 714)">
	<stop  offset="0" style="stop-color:#808080;stop-opacity:0.25"/>
	<stop  offset="0.54" style="stop-color:#808080;stop-opacity:0.12"/>
	<stop  offset="1" style="stop-color:#808080;stop-opacity:0.1"/>
</linearGradient>
<circle class="st11" cx="132.8" cy="558.5" r="23"/>
<linearGradient id="SVGID_2_" gradientUnits="userSpaceOnUse" x1="226.07" y1="219.69" x2="226.07" y2="265.73" gradientTransform="matrix(1 0 0 -1 0 714)">
	<stop  offset="0" style="stop-color:#808080;stop-opacity:0.25"/>
	<stop  offset="0.54" style="stop-color:#808080;stop-opacity:0.12"/>
	<stop  offset="1" style="stop-color:#808080;stop-opacity:0.1"/>
</linearGradient>
<circle class="st12" cx="226.1" cy="471.3" r="23"/>
<linearGradient id="SVGID_3_" gradientUnits="userSpaceOnUse" x1="314.17" y1="275.42" x2="314.17" y2="321.46" gradientTransform="matrix(1 0 0 -1 0 714)">
	<stop  offset="0" style="stop-color:#808080;stop-opacity:0.25"/>
	<stop  offset="0.54" style="stop-color:#808080;stop-opacity:0.12"/>
	<stop  offset="1" style="stop-color:#808080;stop-opacity:0.1"/>
</linearGradient>
<circle class="st13" cx="314.2" cy="415.6" r="23"/>
<linearGradient id="SVGID_4_" gradientUnits="userSpaceOnUse" x1="405.91" y1="359" x2="405.91" y2="405.04" gradientTransform="matrix(1 0 0 -1 0 714)">
	<stop  offset="0" style="stop-color:#808080;stop-opacity:0.25"/>
	<stop  offset="0.54" style="stop-color:#808080;stop-opacity:0.12"/>
	<stop  offset="1" style="stop-color:#808080;stop-opacity:0.1"/>
</linearGradient>
<circle class="st14" cx="405.9" cy="332" r="23"/>
<linearGradient id="SVGID_5_" gradientUnits="userSpaceOnUse" x1="499.84" y1="396.55" x2="499.84" y2="442.59" gradientTransform="matrix(1 0 0 -1 0 714)">
	<stop  offset="0" style="stop-color:#808080;stop-opacity:0.25"/>
	<stop  offset="0.54" style="stop-color:#808080;stop-opacity:0.12"/>
	<stop  offset="1" style="stop-color:#808080;stop-opacity:0.1"/>
</linearGradient>
<circle class="st15" cx="499.8" cy="294.4" r="23"/>
<linearGradient id="SVGID_6_" gradientUnits="userSpaceOnUse" x1="588.96" y1="396.55" x2="588.96" y2="442.59" gradientTransform="matrix(1 0 0 -1 0 714)">
	<stop  offset="0" style="stop-color:#808080;stop-opacity:0.25"/>
	<stop  offset="0.54" style="stop-color:#808080;stop-opacity:0.12"/>
	<stop  offset="1" style="stop-color:#808080;stop-opacity:0.1"/>
</linearGradient>
<circle class="st16" cx="589" cy="294.4" r="23"/>
<linearGradient id="SVGID_7_" gradientUnits="userSpaceOnUse" x1="682.18" y1="517.69" x2="682.18" y2="563.73" gradientTransform="matrix(1 0 0 -1 0 714)">
	<stop  offset="0" style="stop-color:#808080;stop-opacity:0.25"/>
	<stop  offset="0.54" style="stop-color:#808080;stop-opacity:0.12"/>
	<stop  offset="1" style="stop-color:#808080;stop-opacity:0.1"/>
</linearGradient>
<circle class="st17" cx="682.2" cy="173.3" r="23"/>
<linearGradient id="SVGID_8_" gradientUnits="userSpaceOnUse" x1="772.15" y1="624.29" x2="772.15" y2="670.33" gradientTransform="matrix(1 0 0 -1 0 714)">
	<stop  offset="0" style="stop-color:#808080;stop-opacity:0.25"/>
	<stop  offset="0.54" style="stop-color:#808080;stop-opacity:0.12"/>
	<stop  offset="1" style="stop-color:#808080;stop-opacity:0.1"/>
</linearGradient>
<circle class="st18" cx="772.2" cy="66.7" r="23"/>
<circle class="st19" cx="132.8" cy="558.5" r="18.2"/>
<circle class="st19" cx="226.1" cy="471.3" r="18.2"/>
<circle class="st19" cx="314.2" cy="415.6" r="18.2"/>
<circle class="st19" cx="405.9" cy="332" r="18.2"/>
<circle class="st19" cx="499.8" cy="294.4" r="18.2"/>
<circle class="st19" cx="589" cy="294.4" r="18.2"/>
<circle class="st19" cx="682.2" cy="173.3" r="18.2"/>
<circle class="st19" cx="772.2" cy="66.7" r="18.2"/>
<linearGradient id="SVGID_9_" gradientUnits="userSpaceOnUse" x1="1128.3646" y1="467.3773" x2="1128.3646" y2="604.6514" gradientTransform="matrix(0.9992 -4.048057e-02 -4.048057e-02 -0.9992 -492.5109 797.7915)">
	<stop  offset="0" style="stop-color:#808080;stop-opacity:0.25"/>
	<stop  offset="0.54" style="stop-color:#808080;stop-opacity:0.12"/>
	<stop  offset="1" style="stop-color:#808080;stop-opacity:0.1"/>
</linearGradient>
<path class="st20" d="M659.9,174.3c-3.7-2.3-21.5,6.9-27.5,8.4c-4.4,1.1-14.2-2.9-19.1-5l0.1-0.9c0,0-2.8-2.5-6.1-2.3
	c2.8-3,4.7-8.8,4.8-14.4l6-1c0,0-10.3-18.6-20.9-6.8c-0.5-1-1.3-1.9-2.3-2.4c-1.9-0.8-4,0.6-5.6,2c-1.6,1.4-3.1,3.1-5.2,3.2
	c-0.2,0-0.3,0-0.4-0.1c-0.2-0.2-0.3-0.4-0.2-0.6c-0.1-1.8-0.7-3.5-1.6-5.1c-3,2-3.6,6-3.9,9.6c0,0.2,0,0.4,0.1,0.6
	c0.1,0.2,0.4,0.4,0.6,0.5c1.9,1,4.1,1.7,6,0.9c2.3-1,3.5-3.8,5.7-4.8c1.3-0.6,2.8-0.5,4,0.1c-5.1,8.7,0.5,13.5,4.4,15.6
	c0.2,0.6,0.4,1.2,0.7,1.8c-4.2-1.5-11-1.4-17.3,9.4l1.9,0.4l-18.2,29.9c0,0-3.5,3.8-2.2,6.1s7.2-0.3,7.1-5.1c-0.1-2.1,4-8.5,8.5-15
	l-2.1,4.5c1.5,1.1,3,2.1,4.6,3c-3,4.5-5.7,12.3,4.2,19.1l2.6,4.7c0,0,1.2-0.6,3.1-1.4l0.6,0.9c1.8,2.7,0.7,0.9,0.7,0.9l12.1,17.1
	c0,0-15.7,13.4-14.8,23l-2.9,0.1c-2.1,0.1-3.8,1.9-3.7,4c0,0.3,0.1,0.7,0.2,1c0,0,13.8,12.8,17.3,9s-2.7-6-2.7-6l-0.2-3.6l-0.3-0.2
	c1.8-4.4,12.7-23.6,14.3-26.5c2.2-3.9-1.1-10.1-4.8-18.5l13.6-0.5c0,0,2.7,21.4,11.6,25.3l0.2-0.1l-1.6,2.7
	c-1.1,1.9-0.4,4.2,1.4,5.3c0.3,0.2,0.6,0.3,0.9,0.4c0,0,18.2-4.9,16.8-9.9s-6.5-0.9-6.5-0.9l-3.2-1.8l-0.4,0.2
	c-1.8-2.7-14.5-24.3-14.5-26.9s-13.7-5.9-23.5-6.8l-1.2-5.6c1.4-0.1,2.8-0.4,4.2-0.8c0,0-6.5-11.8-5.4-14.3s9.7,0.8,6.9-10l6-1.5
	V185l16.3,6c4,1.5,8.5,0.9,12-1.6l10.9-7.6C661.6,185.1,663.6,176.5,659.9,174.3z"/>
<path class="st21" d="M601.2,179.1c0.5-2.8,1.1-5.6,2-8.4c1.1-3,5,1.9,5,1.9l-0.6,7.7L601.2,179.1z"/>
<ellipse transform="matrix(0.9105 -0.4134 0.4134 0.9105 -14.5893 264.7246)" class="st21" cx="604.4" cy="166.1" rx="9" ry="9"/>
<path class="st21" d="M596.1,229.9l24.3-0.9c0,0,2.5,20.1,10.9,23.8l7.4-3.5c0,0-13.1-21.3-13.8-25.5c-0.6-3.4-27.9-8.8-29.7-5.9
	c-1.1,1.9-1.6,6.2-1.8,9.2c-0.1,1.4,1,2.7,2.4,2.8C595.9,229.9,596,229.9,596.1,229.9z"/>
<path class="st21" d="M608.9,180.9c0.9-1.3,2.6-1.7,4.1-1.1c4.5,2,14,5.9,18.3,4.9c5.6-1.4,22.4-10,25.9-7.9c3.3,2,1.7,9.4-6.3,7.5
	c-0.9-0.2-1.9,0-2.7,0.5l-7.8,5.5c-4,2.8-9.1,3.5-13.7,1.8l-16.2-6c-1.8-0.7-2.7-2.6-2-4.4C608.5,181.4,608.7,181.2,608.9,180.9
	L608.9,180.9z"/>
<path class="st21" d="M587.9,181.9l-19.2,31.5c0,0-3.3,3.5-2,5.8s6.8-0.3,6.6-4.8s19.3-29.2,19.3-29.2L587.9,181.9z"/>
<path class="st21" d="M589.6,223.9l15.7,22.1c0,0-15.4,13.1-13.9,22.2l7,4.3c0,0,12.5-23,13.8-25.6c1.4-3.1-8-28.1-11.4-28
	S589.6,223.9,589.6,223.9z"/>
<path class="st22" d="M617.8,162.5c0,0-11.1-20-21.8-3.7c-8.1,12.4,6.4,16.8,6.4,16.8l3.1-7l-2.5-4.5l5.5-3.6l0.1,3.4L617.8,162.5z"
	/>
<path class="st22" d="M598.6,156.7c-0.5-1.3-1.4-2.3-2.6-3c-1.8-0.7-3.8,0.5-5.2,1.9c-1.4,1.3-3,3-4.9,3c-0.1,0-0.3,0-0.4-0.1
	c-0.2-0.2-0.2-0.4-0.2-0.6c-0.1-1.7-0.6-3.3-1.5-4.8c-2.8,1.9-3.4,5.7-3.7,9c0,0.2,0,0.4,0.1,0.6c0.1,0.2,0.3,0.4,0.6,0.5
	c1.8,0.9,3.9,1.6,5.7,0.8c2.2-0.9,3.2-3.5,5.4-4.5c1.4-0.6,3.1-0.5,4.3,0.4c0.9,0.7,1.8,1.8,2.9,1.6
	C601.7,161.2,599,157.7,598.6,156.7z"/>
<path class="st23" d="M586.5,203.6c0,0-13.2,11.9,0.9,21.6l2.5,4.5c0,0,12-4.8,16.6-3.8l-6.2-20.5L586.5,203.6z"/>
<path class="st24" d="M600.4,176.1c-4-1.4-10.4-1.4-16.4,8.8l4.6,1l-9.5,18.6c0,0,14.1,10.8,26.5,6.9c0,0-6.1-11.1-5.1-13.5
	s9.1,0.8,6.5-9.4l5.6-1.4l0.8-8c0,0-2.8-2.5-6-2.1C605,177.3,602.6,177,600.4,176.1z"/>
<path class="st24" d="M591.9,267.7l-3.3,0.1c-2,0.1-3.6,1.8-3.5,3.8c0,0.3,0.1,0.6,0.1,0.9l0,0c0,0,13,12,16.3,8.5s-2.5-5.6-2.5-5.6
	l-0.1-3.4L591.9,267.7z"/>
<path class="st24" d="M631.6,252.6l-1.6,2.8c-1,1.8-0.4,4,1.4,5c0.3,0.1,0.5,0.3,0.8,0.3l0,0c0,0,17.1-4.6,15.8-9.3
	s-6.1-0.9-6.1-0.9l-3-1.7L631.6,252.6z"/>
<path class="st21" d="M604.8,165.2c1,1.3,1.6,2.8,1.3,3.5s-1.3,0.2-2.3-1.1s-1.6-2.8-1.3-3.5S603.8,164,604.8,165.2z"/>
<line class="st25" x1="37.2" y1="0" x2="37.2" y2="711.5"/>
<line class="st25" x1="0" y1="673.3" x2="864" y2="673.3"/>
<linearGradient id="SVGID_10_" gradientUnits="userSpaceOnUse" x1="274.1625" y1="-72" x2="274.1625" y2="79.3664" gradientTransform="matrix(1 0 0 -1 -168 619.73)">
	<stop  offset="0" style="stop-color:#808080;stop-opacity:0.25"/>
	<stop  offset="0.54" style="stop-color:#808080;stop-opacity:0.12"/>
	<stop  offset="1" style="stop-color:#808080;stop-opacity:0.1"/>
</linearGradient>
<path class="st26" d="M122.3,677.7l-3.3-5l3.6-27.2c-1.9-2.9-4.1-5.7-6.5-8.2c-0.6-3.4-1-6.8-1-10.2c-1-6.5-2.5-12.9-4.5-19.2
	l5.7,1.5l8.2-20v-4.7l3.5-2.3c0,0-4.7-7.1-9.4,0c0,0,1.2,4.7,0,7.1S114,600,114,600h-3l0.6-3.5h-6.2c-0.3-0.4-0.6-0.8-0.9-1.2
	l4.7-10.6l-2.2-1.7l8.1-10.1l1.2-21.2c4.7-1.6,5.7-6.2,5.9-9.2c0-1.1-0.8-2-1.9-2.1c-0.2,0-0.4,0-0.6,0.1c-10.2,2.6-8.1,7.7-8.1,7.7
	l-3.5,20l-4.8,7.6c-0.6-3.5-2.8-6.4-6-7.9l2.7-3.3c-3.9-0.9-7.9-0.7-11.7,0.6c-10.6,4-10.5,19.3,0,23.4c1.5,0.6,3.1,0.9,4.6,0.8
	v-1.2h0.4c-0.2,1.1-0.4,2.3-0.4,3.5l0,0c-2.4,0-2.4,13,1.2,15.3l-1.2,13v7.1c2.4,5.9,7.1,5.9,7.1,5.9l3.5,16.5
	c1.3,0.5,2.8,0.6,4.1,0.1l0.6,4.6c0,0-10.6,8.2-10.6,20l-0.4,0.8l-0.8-0.8l-7.1,5.9l9.4,11.8h9.4c2.4-5.9-7.1-7.1-7.1-7.1v-6l0,0
	l10.5-12.4c0.5,1.6,1.2,3.1,2.1,4.5l0.1,0.9l-1.1-0.2l-2.8,8.8l5.4,1.8c5.6,1.9,11.8,1.2,16.9-2
	C130.8,673.7,122.3,677.7,122.3,677.7z"/>
<path class="st21" d="M98.9,589.3c0,0-2.6,10.7,0,12.3l7.7-4.6l-5.1-9.7L98.9,589.3z"/>
<path class="st21" d="M131.7,587c0,0-4.5-6.8-9,0c0,0,1.1,4.5,0,6.8s-4.5,10.2-4.5,10.2H108v5.6l12.4,3.4l7.9-19.2v-4.5L131.7,587z"
	/>
<polygon class="st27" points="115.9,600.5 113.6,613 104.6,610.7 104.6,600.5 "/>
<circle class="st21" cx="97.8" cy="582.5" r="10.2"/>
<path class="st28" d="M95.6,581.4l9-11.3c-3.7-0.9-7.6-0.7-11.2,0.5c-10.1,3.8-10.1,18.6,0,22.4c1.4,0.6,2.9,0.8,4.5,0.7V587h-3.4
	L95.6,581.4z"/>
<path class="st21" d="M120.4,557.7l-1.1,20.3l-9,11.3l-5.6-3.4l7.9-12.4l3.4-19.2c0,0-2-4.9,7.8-7.4c1-0.3,2.1,0.3,2.4,1.4
	c0.1,0.2,0.1,0.4,0.1,0.6C125.9,551.7,124.9,556.2,120.4,557.7z"/>
<path class="st29" d="M110.2,643.2l5.8,7c0,0-4.3,12.1,1.8,21.6l0.3,2.5l4.7,1l3.7-27.8c0,0-6.7-10.5-11.4-11.5L110.2,643.2z"/>
<path class="st30" d="M123,673.7l3.2,4.9c0,0,8.2-3.9,9.4,2.1l0,0c-4.8,3.1-10.7,3.8-16.2,2l-5.1-1.8l2.7-8.4L123,673.7z"/>
<path class="st21" d="M111.4,646.8l1.1,9c0,0-10.2,7.9-10.2,19.2l-1.1,2.3l3.4,3.4l18.1-21.5c0,0,0-12.4-3.4-15.8L111.4,646.8z"/>
<path class="st30" d="M105.7,679.4v5.8c0,0,9,1.1,6.8,6.8h-9l-9-11.3l6.8-5.6L105.7,679.4z"/>
<path class="st30" d="M122.7,645.7c0,0-10.2,7.9-14.7,5.6l-3.4-15.8c0,0-4.5,0-6.8-5.6v-6.8l21.5,6.8
	C119.3,629.9,119.3,642.3,122.7,645.7z"/>
<path class="st24" d="M113.6,589.3l-9-6.8c0,0-4.5,13.5-6.8,13.5s-2.3,12.4,1.1,14.7l-1.1,12.4l21.5,6.8c0,0-3.4-22.6-10.2-30.5
	L113.6,589.3z"/>
<linearGradient id="SVGID_11_" gradientUnits="userSpaceOnUse" x1="417.5369" y1="167.23" x2="417.5369" y2="297.4248" gradientTransform="matrix(1 0 0 -1 -168 619.73)">
	<stop  offset="0" style="stop-color:#808080;stop-opacity:0.25"/>
	<stop  offset="0.54" style="stop-color:#808080;stop-opacity:0.12"/>
	<stop  offset="1" style="stop-color:#808080;stop-opacity:0.1"/>
</linearGradient>
<path class="st31" d="M285.6,400.4c0,0-1.4,0.6-2.4-1.5l-2.8,1.3l-1.5-3.2l1.8-0.8l-6.6-23.6c0,0,0.2-5.2-3.7-6.1
	c0,0-2.1-0.8-10.2,2.1c-3.4,1.2-6.1,2.3-8.2,3.1c-1.8-1.6-5.7-5.8-5.7-11.7c0-1.5-0.4-2.9-1.2-4.2l5-1.5l-0.1-0.2l14.6-5.6
	c0.6,1.4,7.4-0.8,8.9-3.2c0.7-1.1-0.4-1.7-1.8-2.1c-2-0.5-4.1-0.4-6,0.3l-17.6,6.4l-0.2-0.5c-0.7,0.5-1.5,0.8-2.3,0.9l-1-0.7
	l6.7-10.7c1.4,0.7,5.4-5.1,5.1-7.9c-0.1-1.3-1.4-1.1-2.7-0.6c-1.9,0.8-3.5,2.1-4.6,3.8l-8.3,12.7l-1.6-1.2l-1.2,3.2
	c-1.7-1-3.6-1.8-5.5-2.3l-2.4-5.1c3.9-2.7,4.8-8.1,2.1-12c-0.4-0.5-0.8-1-1.3-1.5c1.6-0.6,3.2-1.1,4.9-1.5c0,0-14-11.6-20.8,3.5
	c0,0,0,0.2,0,0.4c-0.3,0.1-0.5,0.3-0.8,0.3l-5.8,2.2c-0.4,0.1-0.8,0.3-1.2,0.5c-0.6,0.4-1.1,0.8-1.6,1.4c-0.4,0.3-0.7,0.7-0.9,1.2
	c-0.4,1-0.2,2.2,0.5,3c0.7,0.8,1.5,1.5,2.4,2l2.4,1.6c0.8,0.4,1.3,1,1.6,1.8c0.2-1.8-0.5-3.5-1.2-5.2c-0.4-0.8-0.6-1.6-0.4-2.5
	c0.4-0.9,1.1-1.6,2-1.9c1-0.5,2-0.9,3.1-1.3c0.4,3.9,2,9.8,7.7,10.7l1.8,3.9c-1.1,1.7-1.3,4.6,1.9,9.8l7.9,17l0.7,0.1
	c-0.5,2.6-1.1,9.6,6.6,12.2L238,417c0,0-14.2,18.5-11.6,22.3h0.8l-0.9,2.9l-3.3-0.7l-1.5,6.9l19.1,4.1c0,0,1.9-5.2-6.7-6.2
	c0,0-1.5-0.3-1-2.6l-2.1-0.4l1.2-3.9l0,0c0,0,12.2-13.3,14.8-24.9c2-8.8,6.1-25.1,8-32.2l10.9-5c0,0,7.1,19.1,8.4,22l0.4-0.2
	l1.5,3.2l-2.1,1l3,6.4l17.8-8.2C294.7,401.5,293.1,396.1,285.6,400.4z"/>
<rect x="274.6" y="397.2" transform="matrix(0.9081 -0.4187 0.4187 0.9081 -141.8104 152.6303)" class="st21" width="4.6" height="4.6"/>
<rect x="225.9" y="436.3" transform="matrix(0.298 -0.9546 0.9546 0.298 -257.2024 527.354)" class="st21" width="8" height="4.6"/>
<circle class="st21" cx="225.6" cy="335.6" r="8.4"/>
<rect x="224" y="339.5" transform="matrix(0.9081 -0.4187 0.4187 0.9081 -123.9045 127.1681)" class="st21" width="7.6" height="13"/>
<path class="st21" d="M247,351l18.4-6.6c1.9-0.7,3.9-0.8,5.8-0.3c1.4,0.4,2.4,1,1.8,2.1c-1.4,2.4-8,4.5-8.6,3.1l-16.1,6.2L247,351z"
	/>
<path class="st32" d="M235.5,374.4c0,0-3.4,10.8,7.8,13.2l22.2-10.2c0,0,6.9,18.7,8.2,21.5l6.2-2.9l-6.5-23.1c0,0,0.2-5.1-3.6-5.9
	c0,0-2-0.8-10,2.1s-12.1,4.7-12.1,4.7L235.5,374.4z"/>
<path class="st33" d="M235.9,328c0,0-13.7-11.4-20.3,3.5c0,0-0.8,13,8.1,13.9c0.2-2.7-0.1-5.4-1.1-7.9
	C221,334,229.7,329.1,235.9,328z"/>
<path class="st33" d="M209.3,334.3c-0.4,0.1-0.8,0.3-1.2,0.5c-0.6,0.4-1.1,0.8-1.6,1.3c-0.4,0.3-0.7,0.7-0.9,1.2
	c-0.4,1-0.2,2.1,0.5,2.9c0.7,0.8,1.5,1.5,2.4,2l2.4,1.5c0.7,0.4,1.3,1,1.6,1.8c0.2-1.8-0.5-3.5-1.2-5.1c-0.4-0.7-0.5-1.6-0.4-2.4
	c0.4-0.9,1.1-1.5,1.9-1.9c1-0.5,2-0.9,3-1.3c0.5-0.1,1-0.4,1.5-0.6c0.5-0.3,0.8-0.8,0.9-1.3c0.1-0.6-0.3-1.2-0.9-1.5
	c-0.7-0.2-1.8,0.5-2.5,0.7L209.3,334.3z"/>
<path class="st33" d="M282.4,398.7l-9,4.2l2.9,6.2l17.4-8c0,0-1.5-5.2-8.9-1C284.8,400.1,283.4,400.7,282.4,398.7z"/>
<path class="st24" d="M237.2,350.9c0,0,8.2,1.3,10.6-0.7l2.2,4.9l-10.4,3.1L237.2,350.9z"/>
<path class="st24" d="M228.3,347c0,0-7.9,1.1-1.4,11.6l7.7,16.7c0,0,11.9,2.1,18.2-2.5c0,0-6.4-4.6-6.5-12.2S234.8,346.6,228.3,347z
	"/>
<path class="st32" d="M242,385.1l-3.8,31.2c0,0-13.8,18-11.3,21.8h5.6c0,0,12-13,14.5-24.3s8.8-35,8.8-35L242,385.1z"/>
<path class="st33" d="M233.4,442.4l-9.7-2.1l-1.4,6.7l18.7,4c0,0,1.9-5.1-6.5-6.1C234.4,445,232.9,444.6,233.4,442.4z"/>
<path class="st21" d="M238.4,351.7l10.7-16.3c1.1-1.7,2.6-3,4.5-3.7c1.3-0.5,2.5-0.7,2.7,0.6c0.3,2.7-3.7,8.4-5,7.7l-9.1,14.6
	L238.4,351.7z"/>
<polygon class="st24" points="237.5,351.6 239.3,346.7 247.3,352.2 240.4,355.7 "/>
</svg>
