<?xml version="1.0" encoding="utf-8"?>
<!-- Generator: Adobe Illustrator 25.2.3, SVG Export Plug-In . SVG Version: 6.00 Build 0)  -->
<svg version="1.1" id="a7bb2e51-80ad-4cfa-8751-bcdfc108e8b6"
	 xmlns="http://www.w3.org/2000/svg" xmlns:xlink="http://www.w3.org/1999/xlink" x="0px" y="0px" viewBox="0 0 1165.2 858"
	 style="enable-background:new 0 0 1165.2 858;" xml:space="preserve">
<style type="text/css">
	.st0{fill:url(#SVGID_1_);}
	.st1{fill:#56BFBD;}
	.st2{fill:url(#SVGID_2_);}
	.st3{fill:url(#SVGID_3_);}
	.st4{fill:#F8C198;}
	.st5{fill:#605B38;}
	.st6{fill:url(#SVGID_4_);}
	.st7{fill:url(#SVGID_5_);}
	.st8{fill:#53AD9B;}
	.st9{fill:url(#SVGID_6_);}
	.st10{fill:url(#SVGID_7_);}
	.st11{fill:#F5F5F5;}
	.st12{fill:none;stroke:#AD7676;stroke-width:2;stroke-miterlimit:10;}
	.st13{opacity:0.2;fill:#FFFFFF;enable-background:new    ;}
	.st14{fill:#FCCC63;}
	.st15{opacity:0.2;}
	.st16{fill:#FFFFFF;}
	.st17{fill:#263238;}
	.st18{fill:#7B5EEA;}
	.st19{fill:url(#SVGID_8_);}
	.st20{fill:url(#SVGID_9_);}
	.st21{fill:url(#SVGID_10_);}
	.st22{fill:#4D8AF0;}
	.st23{fill:url(#SVGID_11_);}
	.st24{fill:url(#SVGID_12_);}
	.st25{fill:#47E6B1;}
	.st26{fill:url(#SVGID_13_);}
	.st27{fill:#F2F2F2;}
	.st28{fill:url(#SVGID_14_);}
	.st29{fill:url(#SVGID_15_);}
	.st30{fill:#E6E6E6;}
	.st31{fill:url(#SVGID_16_);}
	.st32{fill:url(#SVGID_17_);}
	.st33{fill:url(#SVGID_18_);}
	.st34{fill:#F55F44;}
	.st35{fill:url(#SVGID_19_);}
	.st36{fill:url(#SVGID_20_);}
	.st37{fill:url(#SVGID_21_);}
	.st38{fill:url(#SVGID_22_);}
	.st39{fill:url(#SVGID_23_);}
	.st40{fill:#FFCC80;}
	.st41{fill:url(#SVGID_24_);}
	.st42{fill:url(#SVGID_25_);}
	.st43{fill:url(#SVGID_26_);}
	.st44{fill:url(#SVGID_27_);}
	.st45{fill:url(#SVGID_28_);}
	.st46{fill:url(#SVGID_29_);}
</style>
<linearGradient id="SVGID_1_" gradientUnits="userSpaceOnUse" x1="739.11" y1="259.26" x2="739.11" y2="825" gradientTransform="matrix(1 0 0 -1 -10.88 841)">
	<stop  offset="0" style="stop-color:#808080;stop-opacity:0.25"/>
	<stop  offset="0.54" style="stop-color:#808080;stop-opacity:0.12"/>
	<stop  offset="1" style="stop-color:#808080;stop-opacity:0.1"/>
</linearGradient>
<path class="st0" d="M1003.7,298.9c0,156.2-130.5,282.9-269.5,282.9S452.8,455.1,452.8,298.9S595.2,16,734.2,16
	S1003.7,142.6,1003.7,298.9z"/>
<path class="st1" d="M990.8,298.9c0,148.9-124.4,269.6-256.9,269.6S465.7,447.8,465.7,298.9S601.5,29.2,733.9,29.2
	S990.8,150,990.8,298.9z"/>
<linearGradient id="SVGID_2_" gradientUnits="userSpaceOnUse" x1="686.68" y1="142.61" x2="686.68" y2="189.42" gradientTransform="matrix(1 0 0 -1 -10.88 841)">
	<stop  offset="0" style="stop-color:#808080;stop-opacity:0.25"/>
	<stop  offset="0.54" style="stop-color:#808080;stop-opacity:0.12"/>
	<stop  offset="1" style="stop-color:#808080;stop-opacity:0.1"/>
</linearGradient>
<path class="st2" d="M694.7,668.6c0-9.4-8.5-17-18.9-17s-18.9,7.6-18.9,17c0,7.9,6,14.6,14.2,16.5v13.3h9.5v-13.3
	C688.7,683.2,694.7,676.5,694.7,668.6z"/>
<linearGradient id="SVGID_3_" gradientUnits="userSpaceOnUse" x1="645.1436" y1="133.9812" x2="645.1436" y2="195.2265" gradientTransform="matrix(1 0 0 -1 -10.88 841)">
	<stop  offset="0" style="stop-color:#808080;stop-opacity:0.25"/>
	<stop  offset="0.54" style="stop-color:#808080;stop-opacity:0.12"/>
	<stop  offset="1" style="stop-color:#808080;stop-opacity:0.1"/>
</linearGradient>
<path class="st3" d="M626.6,670.7l-19.2-19.2l-0.4,0.4v-0.1c-2-4.2-5.4-6.9-7.5-5.8s-2.2,5.3-0.2,9.5c0.4,0.9,1,1.8,1.5,2.6l-2,2
	c0,0,49,49,68.1,46.8l3.6-13.4C670.6,693.6,654.3,694.1,626.6,670.7z"/>
<circle class="st4" cx="675.3" cy="669.2" r="15.8"/>
<rect x="671.4" y="681" class="st4" width="7.9" height="15.8"/>
<path class="st5" d="M667.6,690.8h15.5c4.4,0,8,3.6,8,8v54.9c0,4.4-3.6,8-8,8h-15.5c-4.4,0-8-3.6-8-8v-54.9
	C659.6,694.4,663.2,690.8,667.6,690.8z"/>
<path class="st5" d="M668.8,692.3c0,0-15.2,0.5-40.8-21.1l-17.7-17.7l-7.9,7.9c0,0,45.3,45.3,63,43.3L668.8,692.3z"/>
<ellipse transform="matrix(0.9021 -0.4315 0.4315 0.9021 -223.4198 325.7659)" class="st4" cx="606.4" cy="655.4" rx="3.9" ry="7.9"/>
<linearGradient id="SVGID_4_" gradientUnits="userSpaceOnUse" x1="748.64" y1="168.88" x2="748.64" y2="210.14" gradientTransform="matrix(1 0 0 -1 0 860)">
	<stop  offset="0" style="stop-color:#808080;stop-opacity:0.25"/>
	<stop  offset="0.54" style="stop-color:#808080;stop-opacity:0.12"/>
	<stop  offset="1" style="stop-color:#808080;stop-opacity:0.1"/>
</linearGradient>
<circle class="st6" cx="748.6" cy="670.5" r="20.6"/>
<circle class="st4" cx="748.6" cy="670.5" r="18.7"/>
<rect x="744" y="684.5" class="st4" width="9.3" height="18.7"/>
<linearGradient id="SVGID_5_" gradientUnits="userSpaceOnUse" x1="726.313" y1="58.98" x2="726.313" y2="155.4498" gradientTransform="matrix(1 0 0 -1 -10.88 841)">
	<stop  offset="0" style="stop-color:#808080;stop-opacity:0.25"/>
	<stop  offset="0.54" style="stop-color:#808080;stop-opacity:0.12"/>
	<stop  offset="1" style="stop-color:#808080;stop-opacity:0.1"/>
</linearGradient>
<path class="st7" d="M761.6,694.6h-23.1c-2.6,0-5,1.3-6.4,3.4c-17.5,2.3-53.7,5.8-57.3-3.4l-1.7,1.3c-0.3-1.2-0.7-2.3-1.2-3.3
	c-2.3-4.8-6.2-7.8-8.6-6.7s-2.5,6-0.2,10.9c0.8,1.6,1.8,3.1,3,4.4l-1,0.8c0,0,36.9,15.5,65.6,13.6v58.7c0,4.4,3.5,7.9,7.9,7.9h23.1
	c4.4,0,7.9-3.5,7.9-7.9v-71.7C769.5,698.1,765.9,694.5,761.6,694.6z"/>
<path class="st8" d="M738,696.1h21.3c4.4,0,8,3.6,8,8v67.9c0,4.4-3.6,8-8,8H738c-4.4,0-8-3.6-8-8v-67.9
	C730,699.7,733.6,696.1,738,696.1z"/>
<path class="st8" d="M740.5,698c0,0-59.5,9.7-64.1-1.9l-9.3,7c0,0,44.3,18.7,72.3,11.7S740.5,698,740.5,698z"/>
<ellipse transform="matrix(0.9021 -0.4315 0.4315 0.9021 -234.8429 356.9308)" class="st4" cx="669.4" cy="696.1" rx="4.7" ry="9.3"/>
<linearGradient id="SVGID_6_" gradientUnits="userSpaceOnUse" x1="765.6614" y1="150.5337" x2="765.6614" y2="196.8022" gradientTransform="matrix(1 0 0 -1 -10.88 841)">
	<stop  offset="0" style="stop-color:#808080;stop-opacity:0.25"/>
	<stop  offset="0.54" style="stop-color:#808080;stop-opacity:0.12"/>
	<stop  offset="1" style="stop-color:#808080;stop-opacity:0.1"/>
</linearGradient>
<path class="st9" d="M730.4,650.3c1-0.1,1.9,0.5,2.3,1.4c1.9-4.2,6.5-6.8,11-7.4s9.2,0.5,13.6,2c5.6,1.9,11.1,4.5,15.3,8.7
	s7,10,6.5,15.9c-0.4,4.3-2.5,8.3-4.5,12.1c-1.3,2.4-2.7,4.8-4.9,6.3c-4.7,3-11.5-0.2-14-5.2c-0.8-1.7-1.4-3.5-2.3-5
	c-2.8-4.8-8.6-6.8-13.6-9.3C731,665.4,730.3,659.2,730.4,650.3z"/>
<linearGradient id="SVGID_7_" gradientUnits="userSpaceOnUse" x1="724.9999" y1="2" x2="724.9999" y2="147.49" gradientTransform="matrix(1 0 0 -1 0 860)">
	<stop  offset="0" style="stop-color:#808080;stop-opacity:0.25"/>
	<stop  offset="0.54" style="stop-color:#808080;stop-opacity:0.12"/>
	<stop  offset="1" style="stop-color:#808080;stop-opacity:0.1"/>
</linearGradient>
<rect x="640.8" y="712.5" class="st10" width="168.4" height="145.5"/>
<rect x="645.8" y="712.5" class="st11" width="159.6" height="137.9"/>
<line class="st12" x1="803.4" y1="712.5" x2="810.1" y2="586.5"/>
<line class="st12" x1="649.7" y1="712.5" x2="640.7" y2="586.5"/>
<path class="st13" d="M732.8,669.5c0-9.7,7.5-17.8,17.2-18.5c-0.5,0-0.9-0.1-1.4-0.1c-10.3,0-18.6,8.4-18.6,18.7
	c0,10.3,8.3,18.6,18.6,18.6c0.5,0,1,0,1.4-0.1C740.3,687.4,732.8,679.3,732.8,669.5z"/>
<path class="st13" d="M661.9,667.7c0-9.8,7.5-17.9,17.2-18.6c-0.5,0-0.9-0.1-1.4-0.1c-10.3,0-18.6,8.4-18.6,18.7
	c0,10.3,8.3,18.6,18.6,18.6c0.5,0,1,0,1.4-0.1C669.4,685.5,661.9,677.4,661.9,667.7z"/>
<path class="st14" d="M672.2,682c1,0.7,2,1.4,2.8,2.3c3.3,4.2-3,10.6-0.6,15.4c1,2.1,3.5,3.2,4.7,5.3c2.1,4-1.4,9.7,1.7,13
	c0.8,0.9,2,1.4,2.7,2.4c1.2,2-0.5,4.7-0.2,7c0.3,3,3.6,4.6,6.5,5.7c2.4,0.9,5.6,1.6,7.2-0.4c0.8-1,0.9-2.3,1.7-3.3
	c1.4-1.9,4.2-1.9,6.2-3.1c3.2-1.8,3.9-6,3.9-9.6s-0.4-7.5,1.6-10.6c2.2-3.5,6.9-4.8,9.1-8.2c3.4-5.3-0.3-12.6,2.1-18.4
	c0.8-2,2.4-3.7,2.9-5.8c0.8-3.5-1.4-7-4-9.3s-5.9-4.2-8.1-7c-1.5-2-2.6-4.3-4.4-6.1c-4.4-4.1-11.5-2.7-17.4-4
	c-5.5-1.2-10.5-5-16.1-4.3c-4.9,0.5-8.7,4.3-12.1,7.9c-0.9,0.8-1.6,1.8-1.9,2.9c-1,4.8,3.7,9.8,5.8,13.3
	C668.7,671.9,667.8,678.3,672.2,682z"/>
<g class="st15">
	<path class="st16" d="M662.1,654.8c3.4-3.5,7.2-7.3,12.1-7.9c5.6-0.6,10.7,3.1,16.1,4.3c5.9,1.3,13-0.2,17.4,4
		c1.8,1.7,2.8,4.1,4.4,6.1c2.2,2.8,5.4,4.6,8.1,7c1.8,1.6,3.2,3.6,4,5.9c0-0.1,0.1-0.2,0.1-0.3c0.8-3.5-1.4-7-4-9.3s-5.9-4.2-8.1-7
		c-1.5-2-2.6-4.3-4.4-6.1c-4.4-4.1-11.5-2.7-17.4-4c-5.5-1.2-10.5-5-16.1-4.3c-4.9,0.5-8.7,4.3-12.1,7.9c-0.9,0.8-1.6,1.8-1.9,2.9
		c-0.2,1.1-0.2,2.2,0.1,3.3C660.8,656.3,661.4,655.5,662.1,654.8z"/>
	<path class="st16" d="M683.5,724.4c-0.3,1-0.4,2-0.3,3c0,0.4,0.1,0.7,0.3,1.1C683.8,727.1,684.1,725.7,683.5,724.4z"/>
	<path class="st16" d="M679.7,710.6c-0.3,1.7-0.3,3.3-0.1,5C679.8,713.9,679.9,712.3,679.7,710.6z"/>
	<path class="st16" d="M720.8,693.4c0.1-2.2,0-4.4-0.2-6.5C720.5,689,720.6,691.2,720.8,693.4z"/>
	<path class="st16" d="M708.6,717.8c0-0.4,0-0.7,0-1.1c0-0.2,0-0.4,0-0.5C708.6,716.8,708.6,717.3,708.6,717.8z"/>
	<path class="st16" d="M675.8,689.4c-0.7,3.2-2.5,6.6-1.7,9.5C674.8,695.7,676.8,692.2,675.8,689.4z"/>
</g>
<path class="st17" d="M731.8,651.3c0.9-0.1,1.8,0.4,2.2,1.3c1.8-4,6.1-6.4,10.4-6.9s8.7,0.5,12.8,1.9c5.3,1.8,10.4,4.3,14.4,8.2
	s6.6,9.4,6.1,15c-0.4,4.1-2.3,7.8-4.3,11.4c-1.2,2.2-2.5,4.5-4.6,5.9c-4.5,2.8-10.8-0.2-13.2-4.9c-0.8-1.5-1.3-3.2-2.2-4.8
	c-2.7-4.6-8.1-6.4-12.8-8.8C732.3,665.5,731.7,659.7,731.8,651.3z"/>
<path class="st13" d="M731.8,653.2c0.9-0.1,1.8,0.4,2.2,1.3c1.8-4,6.1-6.4,10.4-6.9s8.7,0.5,12.8,1.9c5.3,1.8,10.4,4.3,14.4,8.2
	c3.5,3.3,5.7,7.8,6.2,12.7c0.3-5.4-2.3-10.7-6.2-14.5s-9.1-6.4-14.4-8.2c-4.1-1.4-8.5-2.5-12.8-1.9s-8.6,3-10.4,6.9
	c-0.4-0.9-1.3-1.4-2.2-1.3c0,0.8,0,1.6,0,2.4C731.8,653.5,731.8,653.4,731.8,653.2z"/>
<rect x="692.8" y="578" class="st18" width="59.6" height="20.8"/>
<g class="st15">
	<path d="M733.9,28.3c-3.2,0-6.3,0.1-9.5,0.2c128.9,5.6,247.4,124,247.4,269.4S853.3,561.8,724.4,567.3c3.2,0.1,6.3,0.2,9.5,0.2
		c132.5,0,256.9-120.7,256.9-269.6S866.4,28.3,733.9,28.3z"/>
</g>
<g class="st15">
	<path class="st16" d="M480.8,298.9c0-146.8,131.9-266.2,262.5-269.5c-1.9,0-3.8-0.1-5.7-0.1c-132.5,0-268.2,120.8-268.2,269.6
		s135.8,269.6,268.2,269.6c1.9,0,3.8,0,5.7-0.1C612.7,565,480.8,445.7,480.8,298.9z"/>
</g>
<rect x="639.8" y="530.7" class="st1" width="171.2" height="55.8"/>
<path class="st13" d="M639.8,48.9c0,0-203.4,232.5,0,500l67.2-0.2c0,0-185.4-221-8.5-516.5l-33.1,7.5L639.8,48.9z"/>
<path class="st13" d="M816.7,45.3c0,0,203.4,236,0,503.5l-67.2-0.2c0,0,185.4-222.9,8.5-518.4l33.1,6.6L816.7,45.3z"/>
<linearGradient id="SVGID_8_" gradientUnits="userSpaceOnUse" x1="325.865" y1="758" x2="325.865" y2="818.28" gradientTransform="matrix(1 0 0 -1 -10.88 841)">
	<stop  offset="0" style="stop-color:#808080;stop-opacity:0.25"/>
	<stop  offset="0.54" style="stop-color:#808080;stop-opacity:0.12"/>
	<stop  offset="1" style="stop-color:#808080;stop-opacity:0.1"/>
</linearGradient>
<path class="st19" d="M345.1,52.9c0,16.6-14.3,30.1-29.5,30.1s-30.8-13.5-30.8-30.1s15.6-30.1,30.8-30.1S345.1,36.2,345.1,52.9z"/>
<path class="st18" d="M343.7,52.9c0,15.9-13.6,28.7-28.1,28.7s-29.4-12.9-29.4-28.7s14.9-28.7,29.4-28.7S343.7,37,343.7,52.9z"/>
<linearGradient id="SVGID_9_" gradientUnits="userSpaceOnUse" x1="314.635" y1="747.55" x2="314.635" y2="763.05" gradientTransform="matrix(1 0 0 -1 0 860)">
	<stop  offset="0" style="stop-color:#808080;stop-opacity:0.25"/>
	<stop  offset="0.54" style="stop-color:#808080;stop-opacity:0.12"/>
	<stop  offset="1" style="stop-color:#808080;stop-opacity:0.1"/>
</linearGradient>
<rect x="305.4" y="96.9" class="st20" width="18.4" height="15.5"/>
<rect x="306" y="96.9" class="st18" width="17.5" height="14.7"/>
<line class="st12" x1="323.2" y1="96.9" x2="323.9" y2="83.5"/>
<line class="st12" x1="306.4" y1="96.9" x2="305.4" y2="83.5"/>
<g class="st15">
	<path class="st16" d="M310.1,98.2c0,0.1,0,0.2,0,0.3c0,0,0,0.1,0,0.1C310.2,98.5,310.2,98.4,310.1,98.2z"/>
	<path class="st16" d="M309.7,96.8c0,0.2,0,0.4,0,0.5C309.7,97.1,309.7,96.9,309.7,96.8z"/>
	<path class="st16" d="M312.8,97.5c0,0,0-0.1,0-0.1v-0.1C312.8,97.4,312.8,97.5,312.8,97.5z"/>
</g>
<rect x="311.1" y="82.6" class="st18" width="6.5" height="2.2"/>
<g class="st15">
	<path d="M315.6,24h-1c14.1,0.6,27.1,13.2,27.1,28.7s-13,28.1-27.1,28.7h1c14.5,0,28.1-12.9,28.1-28.7S330.1,24,315.6,24z"/>
</g>
<g class="st15">
	<path class="st16" d="M287.9,52.9c0-15.6,14.4-28.4,28.7-28.7H316c-14.5,0-29.4,12.9-29.4,28.7s14.9,28.7,29.4,28.7h0.6
		C302.4,81.2,287.9,68.5,287.9,52.9z"/>
</g>
<rect x="305.3" y="77.6" class="st18" width="18.7" height="5.9"/>
<path class="st13" d="M305.3,26.2c0,0-22.3,24.8,0,53.3h7.4c0,0-20.3-23.6-0.9-55l-3.6,0.8L305.3,26.2z"/>
<path class="st13" d="M324.7,25.9c0,0,22.3,25.2,0,53.7h-7.4c0,0,20.3-23.8,0.9-55.2l3.6,0.7L324.7,25.9z"/>
<linearGradient id="SVGID_10_" gradientUnits="userSpaceOnUse" x1="96.89" y1="301.85" x2="96.89" y2="386.15" gradientTransform="matrix(1 0 0 -1 -10.88 841)">
	<stop  offset="0" style="stop-color:#808080;stop-opacity:0.25"/>
	<stop  offset="0.54" style="stop-color:#808080;stop-opacity:0.12"/>
	<stop  offset="1" style="stop-color:#808080;stop-opacity:0.1"/>
</linearGradient>
<path class="st21" d="M128.1,497c0,23.3-20,42.2-41.2,42.2s-43-18.9-43-42.2s21.8-42.1,43-42.1S128.1,473.7,128.1,497z"/>
<path class="st22" d="M126.1,497c0,22.2-19,40.2-39.3,40.2s-41-18-41-40.2s20.8-40.2,41-40.2S126.1,474.8,126.1,497z"/>
<linearGradient id="SVGID_11_" gradientUnits="userSpaceOnUse" x1="85.49" y1="279.68" x2="85.49" y2="301.36" gradientTransform="matrix(1 0 0 -1 0 860)">
	<stop  offset="0" style="stop-color:#808080;stop-opacity:0.25"/>
	<stop  offset="0.54" style="stop-color:#808080;stop-opacity:0.12"/>
	<stop  offset="1" style="stop-color:#808080;stop-opacity:0.1"/>
</linearGradient>
<rect x="72.6" y="558.6" class="st23" width="25.8" height="21.7"/>
<rect x="73.4" y="558.6" class="st18" width="24.4" height="20.5"/>
<line class="st12" x1="97.5" y1="558.6" x2="98.5" y2="539.9"/>
<line class="st12" x1="74" y1="558.6" x2="72.6" y2="539.9"/>
<g class="st15">
	<path class="st16" d="M79.1,560.4c0,0.1-0.1,0.3-0.1,0.5c0,0.1,0,0.1,0,0.2C79.2,560.8,79.2,560.6,79.1,560.4z"/>
	<path class="st16" d="M78.6,558.4c0,0.2,0,0.5,0,0.7C78.6,558.9,78.6,558.6,78.6,558.4z"/>
	<path class="st16" d="M83,559.4c0,0,0-0.1,0-0.2v-0.1C83,559.3,83,559.4,83,559.4z"/>
</g>
<rect x="80.6" y="538.6" class="st22" width="9.1" height="3.1"/>
<g class="st15">
	<path d="M86.9,456.7c-0.5,0-1,0-1.4,0c19.7,0.8,37.8,18.5,37.8,40.1c0,21.7-18.1,39.3-37.9,40.2c0.5,0,1,0,1.4,0
		c20.3,0,39.3-18,39.3-40.2S107.1,456.7,86.9,456.7z"/>
</g>
<g class="st15">
	<path class="st16" d="M48.1,497c0-21.9,20.2-39.7,40.2-40.2h-0.9c-20.3,0-41,18-41,40.2c0,22.2,20.8,40.2,41,40.2h0.9
		C68.3,536.7,48.1,518.9,48.1,497z"/>
</g>
<rect x="72.4" y="531.5" class="st22" width="26.2" height="8.3"/>
<path class="st13" d="M72.5,459.8c0,0-31.1,34.6,0,74.5h10.3c0,0-28.4-32.9-1.3-77l-5.1,1.1L72.5,459.8z"/>
<path class="st13" d="M99.5,459.2c0,0,31.1,35.2,0,75H89.2c0,0,28.4-33.2,1.3-77.2l5.1,1L99.5,459.2z"/>
<linearGradient id="SVGID_12_" gradientUnits="userSpaceOnUse" x1="401.91" y1="361.8" x2="401.91" y2="458" gradientTransform="matrix(1 0 0 -1 -10.88 841)">
	<stop  offset="0" style="stop-color:#808080;stop-opacity:0.25"/>
	<stop  offset="0.54" style="stop-color:#808080;stop-opacity:0.12"/>
	<stop  offset="1" style="stop-color:#808080;stop-opacity:0.1"/>
</linearGradient>
<path class="st24" d="M439.1,431.1c0,26.6-22.8,48.1-47,48.1s-49.1-21.5-49.1-48.1S367.8,383,392,383S439.1,404.5,439.1,431.1z"/>
<path class="st25" d="M436.8,431.1c0,25.3-21.7,45.9-44.8,45.9s-46.9-20.6-46.9-45.9s23.7-45.9,46.8-45.9S436.8,405.8,436.8,431.1z"
	/>
<linearGradient id="SVGID_13_" gradientUnits="userSpaceOnUse" x1="390.42" y1="333.81" x2="390.42" y2="358.55" gradientTransform="matrix(1 0 0 -1 0 860)">
	<stop  offset="0" style="stop-color:#808080;stop-opacity:0.25"/>
	<stop  offset="0.54" style="stop-color:#808080;stop-opacity:0.12"/>
	<stop  offset="1" style="stop-color:#808080;stop-opacity:0.1"/>
</linearGradient>
<rect x="375.7" y="501.5" class="st26" width="29.4" height="24.7"/>
<rect x="376.6" y="501.5" class="st27" width="27.9" height="23.5"/>
<line class="st12" x1="404.1" y1="501.5" x2="405.3" y2="480"/>
<line class="st12" x1="377.3" y1="501.5" x2="375.7" y2="480"/>
<g class="st15">
	<path class="st16" d="M383.2,503.5c0,0.2-0.1,0.3-0.1,0.5c0,0.1,0,0.1,0,0.2C383.2,503.9,383.2,503.7,383.2,503.5z"/>
	<path class="st16" d="M382.5,501.1c0,0.3,0,0.6,0,0.8C382.5,501.7,382.5,501.4,382.5,501.1z"/>
	<path class="st16" d="M387.6,502.3c0-0.1,0-0.1,0-0.2v-0.1C387.6,502.2,387.6,502.3,387.6,502.3z"/>
</g>
<rect x="384.8" y="478.6" class="st25" width="10.4" height="3.5"/>
<g class="st15">
	<path d="M392,385.1c-0.5,0-1.1,0-1.6,0c22.5,1,43.2,21.1,43.2,45.8s-20.7,44.9-43.2,45.8c0.5,0,1.1,0,1.6,0
		c23.1,0,44.9-20.5,44.9-45.9S415.1,385.1,392,385.1z"/>
</g>
<g class="st15">
	<path class="st16" d="M347.8,431.1c0-25,23-45.3,45.8-45.8h-1c-23.1,0-46.8,20.5-46.8,45.9s23.7,45.9,46.8,45.9h1
		C370.8,476.4,347.8,456.1,347.8,431.1z"/>
</g>
<rect x="375.5" y="470.5" class="st25" width="29.9" height="9.5"/>
<path class="st13" d="M375.5,388.6c0,0-35.5,39.5,0,85h11.7c0,0-32.4-37.6-1.5-87.8L380,387L375.5,388.6z"/>
<path class="st13" d="M406.4,388c0,0,35.5,40.1,0,85.6h-11.7c0,0,32.4-37.9,1.5-88.2l5.8,1.1L406.4,388z"/>
<linearGradient id="SVGID_14_" gradientUnits="userSpaceOnUse" x1="281.25" y1="707.96" x2="281.25" y2="779.34" gradientTransform="matrix(1 0 0 -1 -10.88 841)">
	<stop  offset="0" style="stop-color:#808080;stop-opacity:0.25"/>
	<stop  offset="0.54" style="stop-color:#808080;stop-opacity:0.12"/>
	<stop  offset="1" style="stop-color:#808080;stop-opacity:0.1"/>
</linearGradient>
<path class="st28" d="M305.1,97.3c0,19.7-16.5,35.7-34,35.7s-35.5-16-35.5-35.7s18-35.7,35.5-35.7S305.1,77.6,305.1,97.3z"/>
<path class="st25" d="M303.5,97.3c0,18.8-15.7,34-32.4,34s-33.8-15.2-33.8-34s17.1-34,33.8-34S303.5,78.6,303.5,97.3z"/>
<linearGradient id="SVGID_15_" gradientUnits="userSpaceOnUse" x1="269.965" y1="692.11" x2="269.965" y2="710.47" gradientTransform="matrix(1 0 0 -1 0 860)">
	<stop  offset="0" style="stop-color:#808080;stop-opacity:0.25"/>
	<stop  offset="0.54" style="stop-color:#808080;stop-opacity:0.12"/>
	<stop  offset="1" style="stop-color:#808080;stop-opacity:0.1"/>
</linearGradient>
<rect x="259.3" y="149.5" class="st29" width="21.2" height="18.4"/>
<rect x="260" y="149.5" class="st30" width="20.1" height="17.4"/>
<line class="st12" x1="279.9" y1="149.5" x2="280.7" y2="133.6"/>
<line class="st12" x1="260.5" y1="149.5" x2="259.3" y2="133.6"/>
<g class="st15">
	<path class="st16" d="M264.7,151c0,0.1,0,0.3,0,0.4c0,0,0,0.1,0,0.1C264.8,151.4,264.8,151.2,264.7,151z"/>
	<path class="st16" d="M264.2,149.3c0,0.2,0,0.4,0,0.6C264.3,149.7,264.3,149.5,264.2,149.3z"/>
	<path class="st16" d="M267.9,150.2c0,0,0-0.1,0-0.1V150C267.9,150.1,267.9,150.1,267.9,150.2z"/>
</g>
<rect x="265.9" y="132.6" class="st25" width="7.5" height="2.6"/>
<g class="st15">
	<path d="M271.1,63.2h-1.2c16.3,0.7,31.2,15.7,31.2,34s-15,33.3-31.2,34h1.2c16.7,0,32.4-15.2,32.4-34S287.8,63.2,271.1,63.2z"/>
</g>
<g class="st15">
	<path class="st16" d="M239.1,97.3c0-18.5,16.6-33.6,33.1-34h-0.7c-16.7,0-33.8,15.2-33.8,34s17.1,34,33.8,34h0.7
		C255.8,130.9,239.1,115.9,239.1,97.3z"/>
</g>
<rect x="259.2" y="126.6" class="st25" width="21.6" height="7"/>
<path class="st13" d="M259.2,65.8c0,0-25.7,29.3,0,63.1h8.5c0,0-23.4-27.9-1.1-65.2l-4.2,1L259.2,65.8z"/>
<path class="st13" d="M281.5,65.4c0,0,25.7,29.8,0,63.5h-8.5c0,0,23.4-28.1,1.1-65.4l4.2,0.8L281.5,65.4z"/>
<linearGradient id="SVGID_16_" gradientUnits="userSpaceOnUse" x1="35.44" y1="763" x2="35.44" y2="813.39" gradientTransform="matrix(1 0 0 -1 -10.88 841)">
	<stop  offset="0" style="stop-color:#808080;stop-opacity:0.25"/>
	<stop  offset="0.54" style="stop-color:#808080;stop-opacity:0.12"/>
	<stop  offset="1" style="stop-color:#808080;stop-opacity:0.1"/>
</linearGradient>
<path class="st31" d="M49.1,52.8c0,13.9-11.7,25.2-24,25.2S0,66.7,0,52.8s12.7-25.2,25.1-25.2S49.1,38.9,49.1,52.8z"/>
<path class="st18" d="M47.9,52.8c0,13.3-11.1,24-22.9,24S1.1,66.1,1.1,52.8s12.1-24,23.9-24S47.9,39.5,47.9,52.8z"/>
<linearGradient id="SVGID_17_" gradientUnits="userSpaceOnUse" x1="24.255" y1="757.36" x2="24.255" y2="770.32" gradientTransform="matrix(1 0 0 -1 0 860)">
	<stop  offset="0" style="stop-color:#808080;stop-opacity:0.25"/>
	<stop  offset="0.54" style="stop-color:#808080;stop-opacity:0.12"/>
	<stop  offset="1" style="stop-color:#808080;stop-opacity:0.1"/>
</linearGradient>
<rect x="16.8" y="89.7" class="st32" width="15" height="13"/>
<rect x="17.2" y="89.7" class="st18" width="14.2" height="12.3"/>
<line class="st12" x1="31.2" y1="89.7" x2="31.8" y2="78.4"/>
<line class="st12" x1="17.5" y1="89.7" x2="16.8" y2="78.4"/>
<g class="st15">
	<path class="st16" d="M20.6,90.7c0,0.1,0,0.2,0,0.3c0,0,0,0.1,0,0.1C20.6,91,20.6,90.9,20.6,90.7z"/>
	<path class="st16" d="M20.2,89.5c0,0.1,0,0.3,0,0.4C20.2,89.8,20.2,89.6,20.2,89.5z"/>
	<path class="st16" d="M22.8,90.2C22.8,90.2,22.8,90.1,22.8,90.2L22.8,90.2C22.8,90.1,22.8,90.1,22.8,90.2z"/>
</g>
<rect x="21.4" y="77.7" class="st18" width="5.3" height="1.8"/>
<g class="st15">
	<path d="M25,28.7h-0.8c11.5,0.5,22,11,22,24s-10.6,23.5-22,24H25c11.8,0,22.9-10.8,22.9-24S36.8,28.7,25,28.7z"/>
</g>
<g class="st15">
	<path class="st16" d="M2.5,52.8c0-13.1,11.8-23.7,23.4-24h-0.5c-11.8,0-23.9,10.8-23.9,24s12.1,24,23.9,24h0.5
		C14.2,76.5,2.5,65.9,2.5,52.8z"/>
</g>
<rect x="16.7" y="73.5" class="st18" width="15.3" height="5"/>
<path class="st13" d="M16.7,30.5c0,0-18.1,20.7,0,44.6h6c0,0-16.5-19.7-0.8-46.1l-3,0.7L16.7,30.5z"/>
<path class="st13" d="M32.4,30.2c0,0,18.1,21,0,44.9h-6c0,0,16.5-19.9,0.8-46.2l3,0.6L32.4,30.2z"/>
<linearGradient id="SVGID_18_" gradientUnits="userSpaceOnUse" x1="452.465" y1="776" x2="452.465" y2="826.39" gradientTransform="matrix(1 0 0 -1 -10.88 841)">
	<stop  offset="0" style="stop-color:#808080;stop-opacity:0.25"/>
	<stop  offset="0.54" style="stop-color:#808080;stop-opacity:0.12"/>
	<stop  offset="1" style="stop-color:#808080;stop-opacity:0.1"/>
</linearGradient>
<path class="st33" d="M466.1,39.8c0,13.9-11.7,25.2-24,25.2S417,53.7,417,39.8s12.6-25.2,25.1-25.2S466.1,25.9,466.1,39.8z"/>
<path class="st34" d="M464.9,39.8c0,13.3-11.1,24-22.9,24s-23.9-10.7-23.9-24s12.1-24,23.9-24S464.9,26.5,464.9,39.8z"/>
<linearGradient id="SVGID_19_" gradientUnits="userSpaceOnUse" x1="441.255" y1="770.36" x2="441.255" y2="783.32" gradientTransform="matrix(1 0 0 -1 0 860)">
	<stop  offset="0" style="stop-color:#808080;stop-opacity:0.25"/>
	<stop  offset="0.54" style="stop-color:#808080;stop-opacity:0.12"/>
	<stop  offset="1" style="stop-color:#808080;stop-opacity:0.1"/>
</linearGradient>
<rect x="433.8" y="76.7" class="st35" width="15" height="13"/>
<rect x="434.2" y="76.7" class="st30" width="14.2" height="12.3"/>
<line class="st12" x1="448.2" y1="76.7" x2="448.8" y2="65.4"/>
<line class="st12" x1="434.5" y1="76.7" x2="433.8" y2="65.4"/>
<g class="st15">
	<path class="st16" d="M437.6,77.7c0,0.1,0,0.2,0,0.3c0,0,0,0.1,0,0.1C437.6,78,437.6,77.9,437.6,77.7z"/>
	<path class="st16" d="M437.2,76.5c0,0.1,0,0.3,0,0.4C437.2,76.8,437.2,76.6,437.2,76.5z"/>
	<path class="st16" d="M439.8,77.2C439.8,77.2,439.8,77.1,439.8,77.2L439.8,77.2C439.8,77.1,439.8,77.1,439.8,77.2z"/>
</g>
<rect x="438.4" y="64.7" class="st34" width="5.3" height="1.8"/>
<g class="st15">
	<path d="M442,15.7h-0.8c11.5,0.5,22,11,22,24s-10.6,23.5-22,24h0.8c11.8,0,22.9-10.8,22.9-24S453.9,15.7,442,15.7z"/>
</g>
<g class="st15">
	<path class="st16" d="M419.5,39.8c0-13.1,11.8-23.7,23.4-24h-0.5c-11.8,0-23.9,10.8-23.9,24s12.1,24,23.9,24h0.5
		C431.2,63.5,419.5,52.9,419.5,39.8z"/>
</g>
<rect x="433.7" y="60.5" class="st34" width="15.3" height="5"/>
<path class="st13" d="M433.7,17.5c0,0-18.1,20.7,0,44.6h6c0,0-16.5-19.7-0.8-46.1l-3,0.7L433.7,17.5z"/>
<path class="st13" d="M449.4,17.2c0,0,18.1,21,0,44.9h-6c0,0,16.5-19.9,0.8-46.2l3,0.6L449.4,17.2z"/>
<linearGradient id="SVGID_20_" gradientUnits="userSpaceOnUse" x1="102.82" y1="572.4" x2="102.82" y2="647.22" gradientTransform="matrix(1 0 0 -1 -10.88 841)">
	<stop  offset="0" style="stop-color:#808080;stop-opacity:0.25"/>
	<stop  offset="0.54" style="stop-color:#808080;stop-opacity:0.12"/>
	<stop  offset="1" style="stop-color:#808080;stop-opacity:0.1"/>
</linearGradient>
<path class="st36" d="M128.4,231.2c0,20.7-17.3,37.4-35.6,37.4s-37.2-16.8-37.2-37.4s18.8-37.4,37.2-37.4S128.4,210.5,128.4,231.2z"
	/>
<path class="st34" d="M126.7,231.2c0,19.7-16.4,35.7-34,35.7s-35.5-16-35.5-35.7s18-35.7,35.5-35.7S126.7,211.5,126.7,231.2z"/>
<linearGradient id="SVGID_21_" gradientUnits="userSpaceOnUse" x1="91.515" y1="554.86" x2="91.515" y2="574.1" gradientTransform="matrix(1 0 0 -1 0 860)">
	<stop  offset="0" style="stop-color:#808080;stop-opacity:0.25"/>
	<stop  offset="0.54" style="stop-color:#808080;stop-opacity:0.12"/>
	<stop  offset="1" style="stop-color:#808080;stop-opacity:0.1"/>
</linearGradient>
<rect x="80.4" y="285.9" class="st37" width="22.3" height="19.2"/>
<rect x="81" y="285.9" class="st30" width="21.1" height="18.2"/>
<line class="st12" x1="101.9" y1="285.9" x2="102.8" y2="269.2"/>
<line class="st12" x1="81.6" y1="285.9" x2="80.4" y2="269.2"/>
<g class="st15">
	<path class="st16" d="M86,287.5c0,0.1,0,0.3,0,0.4c0,0,0,0.1,0,0.1C86.1,287.8,86.1,287.6,86,287.5z"/>
	<path class="st16" d="M85.5,285.6c0,0.2,0,0.4,0,0.7C85.5,286.1,85.5,285.9,85.5,285.6z"/>
	<path class="st16" d="M89.3,286.6c0,0,0-0.1,0-0.1v-0.1C89.3,286.5,89.3,286.5,89.3,286.6z"/>
</g>
<rect x="87.2" y="268.1" class="st34" width="7.9" height="2.8"/>
<g class="st15">
	<path d="M92.7,195.4h-1.2c17,0.7,32.7,16.4,32.7,35.6s-15.7,35-32.7,35.7h1.2c17.5,0,34-16,34-35.7S110.2,195.4,92.7,195.4z"/>
</g>
<g class="st15">
	<path class="st16" d="M59.2,231.2c0-19.4,17.5-35.2,34.7-35.6h-0.8c-17.5,0-35.5,16-35.5,35.7s18,35.7,35.5,35.7h0.8
		C76.7,266.4,59.2,250.6,59.2,231.2z"/>
</g>
<rect x="80.2" y="261.9" class="st34" width="22.7" height="7.4"/>
<path class="st13" d="M80.2,198.1c0,0-26.9,30.8,0,66.1h8.9c0,0-24.5-29.2-1.1-68.4l-4.4,1L80.2,198.1z"/>
<path class="st13" d="M103.6,197.7c0,0,26.9,31.2,0,66.6h-8.9c0,0,24.5-29.5,1.1-68.6l4.4,0.9L103.6,197.7z"/>
<linearGradient id="SVGID_22_" gradientUnits="userSpaceOnUse" x1="999.82" y1="770.5" x2="999.82" y2="841" gradientTransform="matrix(1 0 0 -1 -10.88 841)">
	<stop  offset="0" style="stop-color:#808080;stop-opacity:0.25"/>
	<stop  offset="0.54" style="stop-color:#808080;stop-opacity:0.12"/>
	<stop  offset="1" style="stop-color:#808080;stop-opacity:0.1"/>
</linearGradient>
<path class="st38" d="M1023.3,35.2c0,19.5-16.3,35.2-33.6,35.2s-35.1-15.8-35.1-35.2S972.4,0,989.7,0S1023.3,15.8,1023.3,35.2z"/>
<path class="st22" d="M1021.7,35.2c0,18.6-15.5,33.6-32,33.6s-33.4-15-33.4-33.6s16.9-33.6,33.4-33.6S1021.7,16.7,1021.7,35.2z"/>
<linearGradient id="SVGID_23_" gradientUnits="userSpaceOnUse" x1="988.54" y1="755.08" x2="988.54" y2="773.21" gradientTransform="matrix(1 0 0 -1 0 860)">
	<stop  offset="0" style="stop-color:#808080;stop-opacity:0.25"/>
	<stop  offset="0.54" style="stop-color:#808080;stop-opacity:0.12"/>
	<stop  offset="1" style="stop-color:#808080;stop-opacity:0.1"/>
</linearGradient>
<rect x="978" y="86.8" class="st39" width="21" height="18.1"/>
<rect x="978.7" y="86.8" class="st30" width="19.9" height="17.2"/>
<line class="st12" x1="998.3" y1="86.8" x2="999.1" y2="71.1"/>
<line class="st12" x1="979.2" y1="86.8" x2="978" y2="71.1"/>
<g class="st15">
	<path class="st16" d="M983.4,88.3c0,0.1,0,0.3,0,0.4c0,0,0,0.1,0,0.1C983.4,88.6,983.4,88.4,983.4,88.3z"/>
	<path class="st16" d="M982.9,86.6c0,0.2,0,0.4,0,0.6C982.9,87,982.9,86.8,982.9,86.6z"/>
	<path class="st16" d="M986.5,87.4c0,0,0-0.1,0-0.1v-0.1C986.5,87.3,986.5,87.4,986.5,87.4z"/>
</g>
<rect x="984.5" y="70" class="st40" width="7.4" height="2.6"/>
<g class="st15">
	<path d="M989.7,1.5h-1.2c16.1,0.7,30.8,15.5,30.8,33.6s-14.8,32.9-30.8,33.6h1.2c16.5,0,32-15,32-33.6S1006.1,1.5,989.7,1.5z"/>
</g>
<g class="st15">
	<path class="st16" d="M958.1,35.2c0-18.3,16.4-33.2,32.7-33.6h-0.7c-16.5,0-33.4,15-33.4,33.6s16.9,33.6,33.4,33.6h0.7
		C974.5,68.4,958.1,53.5,958.1,35.2z"/>
</g>
<rect x="977.9" y="64.1" class="st40" width="21.3" height="7"/>
<path class="st13" d="M977.9,4.1c0,0-25.3,29,0,62.3h8.4c0,0-23.1-27.6-1.1-64.4l-4.1,0.9L977.9,4.1z"/>
<path class="st13" d="M1000,3.6c0,0,25.3,29.4,0,62.7h-8.4c0,0,23.1-27.8,1.1-64.6l4.1,0.8L1000,3.6z"/>
<linearGradient id="SVGID_24_" gradientUnits="userSpaceOnUse" x1="1136.8199" y1="761.4" x2="1136.8199" y2="836.22" gradientTransform="matrix(1 0 0 -1 -10.88 841)">
	<stop  offset="0" style="stop-color:#808080;stop-opacity:0.25"/>
	<stop  offset="0.54" style="stop-color:#808080;stop-opacity:0.12"/>
	<stop  offset="1" style="stop-color:#808080;stop-opacity:0.1"/>
</linearGradient>
<path class="st41" d="M1162.4,42.2c0,20.7-17.3,37.4-35.6,37.4s-37.2-16.8-37.2-37.4s18.8-37.4,37.2-37.4S1162.4,21.5,1162.4,42.2z"
	/>
<path class="st18" d="M1160.7,42.2c0,19.7-16.4,35.7-34,35.7s-35.5-16-35.5-35.7s18-35.7,35.5-35.7S1160.7,22.5,1160.7,42.2z"/>
<linearGradient id="SVGID_25_" gradientUnits="userSpaceOnUse" x1="1125.515" y1="743.86" x2="1125.515" y2="763.1" gradientTransform="matrix(1 0 0 -1 0 860)">
	<stop  offset="0" style="stop-color:#808080;stop-opacity:0.25"/>
	<stop  offset="0.54" style="stop-color:#808080;stop-opacity:0.12"/>
	<stop  offset="1" style="stop-color:#808080;stop-opacity:0.1"/>
</linearGradient>
<rect x="1114.4" y="96.9" class="st42" width="22.3" height="19.2"/>
<rect x="1115" y="96.9" class="st18" width="21.1" height="18.2"/>
<line class="st12" x1="1135.9" y1="96.9" x2="1136.8" y2="80.2"/>
<line class="st12" x1="1115.6" y1="96.9" x2="1114.4" y2="80.2"/>
<g class="st15">
	<path class="st16" d="M1120,98.5c0,0.1,0,0.3,0,0.4c0,0,0,0.1,0,0.1C1120.1,98.8,1120.1,98.6,1120,98.5z"/>
	<path class="st16" d="M1119.5,96.6c0,0.2,0,0.4,0,0.7C1119.5,97.1,1119.5,96.9,1119.5,96.6z"/>
	<path class="st16" d="M1123.3,97.6c0,0,0-0.1,0-0.1v-0.1C1123.3,97.5,1123.3,97.5,1123.3,97.6z"/>
</g>
<rect x="1121.2" y="79.1" class="st18" width="7.9" height="2.8"/>
<g class="st15">
	<path d="M1126.7,6.4h-1.2c17,0.7,32.7,16.4,32.7,35.6s-15.7,35-32.7,35.7h1.2c17.5,0,34-16,34-35.7S1144.2,6.4,1126.7,6.4z"/>
</g>
<g class="st15">
	<path class="st16" d="M1093.2,42.2c0-19.4,17.4-35.2,34.7-35.7h-0.8c-17.5,0-35.5,16-35.5,35.7s18,35.7,35.5,35.7h0.8
		C1110.7,77.4,1093.2,61.6,1093.2,42.2z"/>
</g>
<rect x="1114.2" y="72.8" class="st18" width="22.7" height="7.4"/>
<path class="st13" d="M1114.2,9.1c0,0-26.9,30.8,0,66.1h8.9c0,0-24.5-29.2-1.1-68.3l-4.4,1L1114.2,9.1z"/>
<path class="st13" d="M1137.6,8.7c0,0,26.9,31.2,0,66.6h-8.9c0,0,24.5-29.5,1.1-68.6l4.4,0.9L1137.6,8.7z"/>
<linearGradient id="SVGID_26_" gradientUnits="userSpaceOnUse" x1="1070.885" y1="574.36" x2="1070.885" y2="641" gradientTransform="matrix(1 0 0 -1 -10.88 841)">
	<stop  offset="0" style="stop-color:#808080;stop-opacity:0.25"/>
	<stop  offset="0.54" style="stop-color:#808080;stop-opacity:0.12"/>
	<stop  offset="1" style="stop-color:#808080;stop-opacity:0.1"/>
</linearGradient>
<path class="st43" d="M1093.3,233.3c0,18.4-15.8,33.3-32.6,33.3s-34-14.9-34-33.3s17.2-33.3,34-33.3S1093.3,214.9,1093.3,233.3z"/>
<path class="st34" d="M1091.7,233.3c0,17.5-15,31.8-31.1,31.8s-32.4-14.2-32.4-31.8s16.4-31.8,32.4-31.8S1091.7,215.8,1091.7,233.3z
	"/>
<linearGradient id="SVGID_27_" gradientUnits="userSpaceOnUse" x1="1059.595" y1="560.81" x2="1059.595" y2="577.95" gradientTransform="matrix(1 0 0 -1 0 860)">
	<stop  offset="0" style="stop-color:#808080;stop-opacity:0.25"/>
	<stop  offset="0.54" style="stop-color:#808080;stop-opacity:0.12"/>
	<stop  offset="1" style="stop-color:#808080;stop-opacity:0.1"/>
</linearGradient>
<rect x="1049.4" y="282" class="st44" width="20.4" height="17.1"/>
<rect x="1050" y="282" class="st30" width="19.3" height="16.2"/>
<line class="st12" x1="1069.1" y1="282" x2="1069.9" y2="267.2"/>
<line class="st12" x1="1050.5" y1="282" x2="1049.4" y2="267.2"/>
<g class="st15">
	<path class="st16" d="M1054.6,283.5c0,0.1,0,0.2,0,0.4c0,0,0,0.1,0,0.1C1054.6,283.8,1054.6,283.6,1054.6,283.5z"/>
	<path class="st16" d="M1054.1,281.8c0,0.2,0,0.4,0,0.6C1054.1,282.2,1054.1,282,1054.1,281.8z"/>
	<path class="st16" d="M1057.6,282.7c0,0,0-0.1,0-0.1v-0.1C1057.6,282.5,1057.6,282.6,1057.6,282.7z"/>
</g>
<rect x="1055.7" y="266.2" class="st34" width="7.2" height="2.5"/>
<g class="st15">
	<path d="M1060.7,201.4h-1.2c15.6,0.7,29.9,14.6,29.9,31.7s-14.3,31.1-29.9,31.7h1.2c16,0,31.1-14.2,31.1-31.8
		S1076.7,201.4,1060.7,201.4z"/>
</g>
<g class="st15">
	<path class="st16" d="M1030.1,233.3c0-17.3,16-31.4,31.8-31.8h-0.7c-16,0-32.4,14.2-32.4,31.8s16.4,31.8,32.4,31.8h0.7
		C1046,264.7,1030.1,250.6,1030.1,233.3z"/>
</g>
<rect x="1049.3" y="260.6" class="st34" width="20.7" height="6.6"/>
<path class="st13" d="M1049.3,203.9c0,0-24.6,27.4,0,58.9h8.1c0,0-22.4-26-1-60.9l-4,0.9L1049.3,203.9z"/>
<path class="st13" d="M1070.7,203.4c0,0,24.6,27.8,0,59.3h-8.1c0,0,22.4-26.3,1-61.1l4,0.8L1070.7,203.4z"/>
<linearGradient id="SVGID_28_" gradientUnits="userSpaceOnUse" x1="1140.2549" y1="367.4" x2="1140.2549" y2="441" gradientTransform="matrix(1 0 0 -1 -10.88 841)">
	<stop  offset="0" style="stop-color:#808080;stop-opacity:0.25"/>
	<stop  offset="0.54" style="stop-color:#808080;stop-opacity:0.12"/>
	<stop  offset="1" style="stop-color:#808080;stop-opacity:0.1"/>
</linearGradient>
<path class="st45" d="M1165.2,436.8c0,20.3-17,36.8-35.1,36.8s-36.6-16.5-36.6-36.8s18.5-36.8,36.6-36.8S1165.2,416.5,1165.2,436.8z
	"/>
<path class="st25" d="M1163.5,436.8c0,19.4-16.2,35.1-33.4,35.1s-34.9-15.7-34.9-35.1s17.7-35.1,34.9-35.1
	S1163.5,417.4,1163.5,436.8z"/>
<linearGradient id="SVGID_29_" gradientUnits="userSpaceOnUse" x1="1128.955" y1="350.45" x2="1128.955" y2="369.38" gradientTransform="matrix(1 0 0 -1 0 860)">
	<stop  offset="0" style="stop-color:#808080;stop-opacity:0.25"/>
	<stop  offset="0.54" style="stop-color:#808080;stop-opacity:0.12"/>
	<stop  offset="1" style="stop-color:#808080;stop-opacity:0.1"/>
</linearGradient>
<rect x="1118" y="490.6" class="st46" width="21.9" height="18.9"/>
<rect x="1118.7" y="490.6" class="st30" width="20.8" height="17.9"/>
<line class="st12" x1="1139.2" y1="490.6" x2="1140" y2="474.2"/>
<line class="st12" x1="1119.2" y1="490.6" x2="1118" y2="474.2"/>
<g class="st15">
	<path class="st16" d="M1123.6,492.2c0,0.1,0,0.3,0,0.4c0,0,0,0.1,0,0.1C1123.6,492.5,1123.6,492.3,1123.6,492.2z"/>
	<path class="st16" d="M1123.1,490.4c0,0.2,0,0.4,0,0.6C1123.1,490.8,1123.1,490.6,1123.1,490.4z"/>
	<path class="st16" d="M1126.8,491.3c0,0,0-0.1,0-0.1v-0.1C1126.8,491.2,1126.8,491.2,1126.8,491.3z"/>
</g>
<rect x="1124.8" y="473.1" class="st25" width="7.8" height="2.7"/>
<g class="st15">
	<path d="M1130.1,401.6h-1.2c16.8,0.7,32.2,16.1,32.2,35s-15.4,34.3-32.2,35h1.2c17.2,0,33.4-15.7,33.4-35.1
		S1147.3,401.6,1130.1,401.6z"/>
</g>
<g class="st15">
	<path class="st16" d="M1097.2,436.8c0-19.1,17.2-34.6,34.2-35.1h-0.7c-17.2,0-34.9,15.7-34.9,35.1s17.7,35.1,34.9,35.1h0.7
		C1114.3,471.4,1097.2,455.9,1097.2,436.8z"/>
</g>
<rect x="1117.9" y="467" class="st25" width="22.3" height="7.3"/>
<path class="st13" d="M1117.9,404.3c0,0-26.5,30.2,0,65.1h8.7c0,0-24.1-28.8-1.1-67.2l-4.3,1L1117.9,404.3z"/>
<path class="st13" d="M1140.9,403.8c0,0,26.5,30.7,0,65.5h-8.7c0,0,24.1-29,1.1-67.4l4.3,0.9L1140.9,403.8z"/>
</svg>
