<?xml version="1.0" encoding="utf-8"?>
<!-- Generator: Adobe Illustrator 25.2.3, SVG Export Plug-In . SVG Version: 6.00 Build 0)  -->
<svg version="1.1" id="Слой_1" xmlns="http://www.w3.org/2000/svg" xmlns:xlink="http://www.w3.org/1999/xlink" x="0px" y="0px"
	 viewBox="0 0 150 181" style="enable-background:new 0 0 150 181;" xml:space="preserve">
<style type="text/css">
	.st0{opacity:0.7;fill:#56BFBD;}
	.st1{fill:#56BFBD;}
	.st2{fill:#453C9E;}
	.st3{fill:#FFFFFF;}
	.st4{fill:#24126A;}
	.st5{opacity:0.51;}
	.st6{opacity:0.51;fill:#56BFBD;}
	.st7{fill:#42E8E0;}
	.st8{opacity:0.1;fill:#42E8E0;}
	.st9{opacity:0.4;fill:#42E8E0;}
	.st10{fill:#10B6B6;}
	.st11{fill:#44C4DD;}
	.st12{opacity:0.7;fill:#6B5E9A;}
	.st13{fill:url(#SVGID_1_);}
	.st14{fill:#5793CE;}
	.st15{fill:url(#SVGID_2_);}
	.st16{fill:url(#SVGID_3_);}
	.st17{fill:#173D7A;}
	.st18{fill:#396CAA;}
	.st19{opacity:0.3;fill:#06033E;}
	.st20{fill:#D4ECFF;}
	.st21{fill:#FF2C9C;}
	.st22{opacity:0.5;fill:#173D7A;}
</style>
<path class="st0" d="M-128,145.2c-0.7,0-1.4-0.2-2-0.5l-41.5-23.9c-0.3-0.1-0.4-0.4-0.4-0.7c0-0.3,0.2-0.6,0.4-0.7l43.5-25.1
	l0.1,0.1l43.4,25c0.3,0.1,0.4,0.4,0.4,0.7c0,0.3-0.2,0.6-0.4,0.7l-41.5,23.9C-126.7,145-127.3,145.2-128,145.2z M-128,94.7l-43.3,25
	c-0.1,0.1-0.2,0.2-0.2,0.4c0,0.1,0.1,0.3,0.2,0.4l41.5,23.9c1.1,0.6,2.5,0.6,3.6,0l41.5-23.9c0.1-0.1,0.2-0.2,0.2-0.4
	c0-0.1-0.1-0.3-0.2-0.4L-128,94.7z"/>
<path class="st0" d="M-83.4,104.9c-0.8,0-1.6-0.2-2.2-0.5l-17.7-10.2c-0.6-0.4-0.9-0.8-0.9-1.4c0-0.6,0.5-1.3,1.3-1.8l17-9.8
	c1.5-0.9,3.8-0.9,5-0.2l17.7,10.2c0.6,0.4,0.9,0.8,0.9,1.4c0,0.6-0.5,1.3-1.3,1.8l-17,9.8C-81.4,104.7-82.4,104.9-83.4,104.9z
	 M-83.1,80.9c-0.9,0-1.9,0.2-2.6,0.7l-17,9.8c-0.7,0.4-1.1,0.9-1.1,1.4c0,0.4,0.3,0.8,0.7,1l17.7,10.2c1.2,0.7,3.3,0.6,4.7-0.2
	l17-9.8c0.7-0.4,1.1-0.9,1.1-1.4c0-0.4-0.3-0.8-0.7-1l-17.7-10.2C-81.6,81.1-82.4,80.9-83.1,80.9z"/>
<g>
	<g>
		<polygon class="st1" points="-128,125.1 -172.3,99.6 -128,74 -83.8,99.6 		"/>
		<polygon class="st2" points="-128,118.2 -160.2,99.6 -128,81 -95.8,99.6 		"/>
		<polygon class="st3" points="-128,82.2 -96.9,100.2 -95.8,99.6 -128,81 -160.2,99.6 -159.1,100.2 		"/>
		<polygon class="st1" points="-83.8,99.6 -83.8,114.1 -128,139.6 -128,125.1 		"/>
		<polygon class="st4" points="-172.3,99.6 -172.3,114.1 -128,139.6 -128,125.1 		"/>
		<g class="st5">
			<polygon class="st2" points="-169.3,106.1 -169.3,110.6 -131,132.7 -131,128.2 			"/>
		</g>
		<polygon class="st3" points="-128,124.3 -171.6,99.2 -172.3,99.6 -128,125.1 -83.8,99.6 -84.5,99.2 		"/>
		<polygon class="st2" points="-90.4,109.7 -90.4,112.3 -121.4,130.2 -121.4,127.6 		"/>
		<polygon class="st6" points="-172.3,99.6 -172.3,114.1 -128,139.6 -128,125.1 		"/>
		<polygon class="st7" points="-141,124.4 -149,119.7 -149,120.7 -141,125.3 		"/>
		<polygon class="st7" points="-150.1,119.1 -152.3,117.8 -152.3,118.8 -150.1,120 		"/>
		<polygon class="st7" points="-160.3,113.2 -164.8,110.6 -164.8,111.6 -160.3,114.2 		"/>
		<polygon class="st7" points="-156.2,115.5 -159.5,113.7 -159.5,114.6 -156.3,116.5 		"/>
		<polygon class="st7" points="-153.2,117.3 -155.4,116 -155.4,117 -153.2,118.2 		"/>
		<g>
			<g>
				<polygon class="st7" points="-128,87.4 -129.4,86.6 -128,85.7 -126.6,86.6 				"/>
				<polygon class="st8" points="-125.2,89 -126.6,88.2 -125.2,87.4 -123.8,88.2 				"/>
				<polygon class="st9" points="-122.4,90.6 -123.8,89.8 -122.4,89 -121,89.8 				"/>
				<polygon class="st7" points="-119.5,92.2 -121,91.4 -119.5,90.6 -118.1,91.4 				"/>
				<polygon class="st9" points="-116.7,93.9 -118.1,93 -116.7,92.2 -115.3,93 				"/>
				<polygon class="st7" points="-113.9,95.5 -115.3,94.7 -113.9,93.9 -112.5,94.7 				"/>
				<polygon class="st7" points="-111.1,97.1 -112.5,96.3 -111.1,95.5 -109.7,96.3 				"/>
				<polygon class="st7" points="-108.3,98.7 -109.7,97.9 -108.3,97.1 -106.9,97.9 				"/>
				<polygon class="st8" points="-105.5,100.4 -106.9,99.5 -105.5,98.7 -104.1,99.5 				"/>
			</g>
			<g>
				<polygon class="st7" points="-130.8,89 -132.2,88.2 -130.8,87.4 -129.4,88.2 				"/>
				<polygon class="st7" points="-128,90.6 -129.4,89.8 -128,89 -126.6,89.8 				"/>
				<polygon class="st7" points="-125.2,92.2 -126.6,91.4 -125.2,90.6 -123.8,91.4 				"/>
				<polygon class="st7" points="-122.4,93.9 -123.8,93.1 -122.4,92.2 -121,93.1 				"/>
				<polygon class="st7" points="-119.6,95.5 -121,94.7 -119.6,93.9 -118.2,94.7 				"/>
				<polygon class="st7" points="-116.7,97.1 -118.2,96.3 -116.7,95.5 -115.3,96.3 				"/>
				<polygon class="st7" points="-113.9,98.7 -115.3,97.9 -113.9,97.1 -112.5,97.9 				"/>
				<polygon class="st7" points="-111.1,100.4 -112.5,99.5 -111.1,98.7 -109.7,99.5 				"/>
				<polygon class="st7" points="-108.3,102 -109.7,101.2 -108.3,100.4 -106.9,101.2 				"/>
			</g>
			<g>
				<polygon class="st7" points="-133.6,90.6 -135,89.8 -133.6,89 -132.2,89.8 				"/>
				<polygon class="st7" points="-130.8,92.2 -132.2,91.4 -130.8,90.6 -129.4,91.4 				"/>
				<polygon class="st7" points="-128,93.9 -129.4,93.1 -128,92.2 -126.6,93.1 				"/>
				<polygon class="st8" points="-125.2,95.5 -126.6,94.7 -125.2,93.9 -123.8,94.7 				"/>
				<polygon class="st9" points="-122.4,97.1 -123.8,96.3 -122.4,95.5 -121,96.3 				"/>
				<polygon class="st9" points="-119.6,98.7 -121,97.9 -119.6,97.1 -118.2,97.9 				"/>
				<polygon class="st7" points="-116.8,100.4 -118.2,99.6 -116.8,98.7 -115.4,99.6 				"/>
				<polygon class="st7" points="-113.9,102 -115.4,101.2 -113.9,100.4 -112.5,101.2 				"/>
				<polygon class="st7" points="-111.1,103.6 -112.5,102.8 -111.1,102 -109.7,102.8 				"/>
			</g>
			<g>
				<polygon class="st9" points="-136.5,92.3 -137.9,91.4 -136.5,90.6 -135,91.4 				"/>
				<polygon class="st9" points="-133.6,93.9 -135,93.1 -133.6,92.3 -132.2,93.1 				"/>
				<polygon class="st8" points="-130.8,95.5 -132.2,94.7 -130.8,93.9 -129.4,94.7 				"/>
				<polygon class="st7" points="-128,97.1 -129.4,96.3 -128,95.5 -126.6,96.3 				"/>
				<polygon class="st7" points="-125.2,98.7 -126.6,97.9 -125.2,97.1 -123.8,97.9 				"/>
				<polygon class="st7" points="-122.4,100.4 -123.8,99.6 -122.4,98.7 -121,99.6 				"/>
				<polygon class="st9" points="-119.6,102 -121,101.2 -119.6,100.4 -118.2,101.2 				"/>
				<polygon class="st7" points="-116.8,103.6 -118.2,102.8 -116.8,102 -115.4,102.8 				"/>
				<polygon class="st7" points="-114,105.2 -115.4,104.4 -114,103.6 -112.6,104.4 				"/>
			</g>
			<g>
				<polygon class="st7" points="-139.3,93.9 -140.7,93.1 -139.3,92.3 -137.9,93.1 				"/>
				<polygon class="st7" points="-136.5,95.5 -137.9,94.7 -136.5,93.9 -135.1,94.7 				"/>
				<polygon class="st7" points="-133.7,97.1 -135.1,96.3 -133.7,95.5 -132.2,96.3 				"/>
				<polygon class="st7" points="-130.8,98.8 -132.2,97.9 -130.8,97.1 -129.4,97.9 				"/>
				<polygon class="st7" points="-128,100.4 -129.4,99.6 -128,98.8 -126.6,99.6 				"/>
				<polygon class="st7" points="-125.2,102 -126.6,101.2 -125.2,100.4 -123.8,101.2 				"/>
				<polygon class="st7" points="-122.4,103.6 -123.8,102.8 -122.4,102 -121,102.8 				"/>
				<polygon class="st7" points="-119.6,105.2 -121,104.4 -119.6,103.6 -118.2,104.4 				"/>
				<polygon class="st7" points="-116.8,106.9 -118.2,106.1 -116.8,105.2 -115.4,106.1 				"/>
			</g>
			<g>
				<polygon class="st7" points="-142.1,95.5 -143.5,94.7 -142.1,93.9 -140.7,94.7 				"/>
				<polygon class="st7" points="-139.3,97.1 -140.7,96.3 -139.3,95.5 -137.9,96.3 				"/>
				<polygon class="st9" points="-136.5,98.8 -137.9,97.9 -136.5,97.1 -135.1,97.9 				"/>
				<polygon class="st7" points="-133.7,100.4 -135.1,99.6 -133.7,98.8 -132.3,99.6 				"/>
				<polygon class="st8" points="-130.9,102 -132.3,101.2 -130.9,100.4 -129.4,101.2 				"/>
				<polygon class="st7" points="-128,103.6 -129.4,102.8 -128,102 -126.6,102.8 				"/>
				<polygon class="st7" points="-125.2,105.3 -126.6,104.4 -125.2,103.6 -123.8,104.4 				"/>
				<polygon class="st7" points="-122.4,106.9 -123.8,106.1 -122.4,105.3 -121,106.1 				"/>
				<polygon class="st7" points="-119.6,108.5 -121,107.7 -119.6,106.9 -118.2,107.7 				"/>
			</g>
			<g>
				<polygon class="st7" points="-144.9,97.1 -146.3,96.3 -144.9,95.5 -143.5,96.3 				"/>
				<polygon class="st7" points="-142.1,98.8 -143.5,98 -142.1,97.1 -140.7,98 				"/>
				<polygon class="st9" points="-139.3,100.4 -140.7,99.6 -139.3,98.8 -137.9,99.6 				"/>
				<polygon class="st7" points="-136.5,102 -137.9,101.2 -136.5,100.4 -135.1,101.2 				"/>
				<polygon class="st7" points="-133.7,103.6 -135.1,102.8 -133.7,102 -132.3,102.8 				"/>
				<polygon class="st8" points="-130.9,105.3 -132.3,104.5 -130.9,103.6 -129.5,104.5 				"/>
				<polygon class="st9" points="-128.1,106.9 -129.5,106.1 -128.1,105.3 -126.6,106.1 				"/>
				<polygon class="st7" points="-125.2,108.5 -126.6,107.7 -125.2,106.9 -123.8,107.7 				"/>
				<polygon class="st8" points="-122.4,110.1 -123.8,109.3 -122.4,108.5 -121,109.3 				"/>
			</g>
			<g>
				<polygon class="st7" points="-147.7,98.8 -149.2,98 -147.7,97.2 -146.3,98 				"/>
				<polygon class="st9" points="-144.9,100.4 -146.3,99.6 -144.9,98.8 -143.5,99.6 				"/>
				<polygon class="st7" points="-142.1,102 -143.5,101.2 -142.1,100.4 -140.7,101.2 				"/>
				<polygon class="st7" points="-139.3,103.6 -140.7,102.8 -139.3,102 -137.9,102.8 				"/>
				<polygon class="st7" points="-136.5,105.3 -137.9,104.5 -136.5,103.6 -135.1,104.5 				"/>
				<polygon class="st7" points="-133.7,106.9 -135.1,106.1 -133.7,105.3 -132.3,106.1 				"/>
				<polygon class="st7" points="-130.9,108.5 -132.3,107.7 -130.9,106.9 -129.5,107.7 				"/>
				<polygon class="st9" points="-128.1,110.1 -129.5,109.3 -128.1,108.5 -126.7,109.3 				"/>
				<polygon class="st7" points="-125.3,111.8 -126.7,111 -125.3,110.1 -123.8,111 				"/>
			</g>
			<g>
				<polygon class="st7" points="-150.6,100.4 -152,99.6 -150.6,98.8 -149.2,99.6 				"/>
				<polygon class="st8" points="-147.8,102 -149.2,101.2 -147.8,100.4 -146.4,101.2 				"/>
				<polygon class="st7" points="-144.9,103.7 -146.4,102.8 -144.9,102 -143.5,102.8 				"/>
				<polygon class="st7" points="-142.1,105.3 -143.5,104.5 -142.1,103.7 -140.7,104.5 				"/>
				<polygon class="st7" points="-139.3,106.9 -140.7,106.1 -139.3,105.3 -137.9,106.1 				"/>
				<polygon class="st7" points="-136.5,108.5 -137.9,107.7 -136.5,106.9 -135.1,107.7 				"/>
				<polygon class="st9" points="-133.7,110.1 -135.1,109.3 -133.7,108.5 -132.3,109.3 				"/>
				<polygon class="st7" points="-130.9,111.8 -132.3,111 -130.9,110.1 -129.5,111 				"/>
				<polygon class="st7" points="-128.1,113.4 -129.5,112.6 -128.1,111.8 -126.7,112.6 				"/>
			</g>
		</g>
	</g>
	<g>
		<polygon class="st1" points="-128,100.7 -172.3,75.1 -128,49.6 -83.8,75.1 		"/>
		<polygon class="st2" points="-128,93.7 -160.2,75.1 -128,56.6 -95.8,75.1 		"/>
		<polygon class="st3" points="-128,57.8 -96.9,75.8 -95.8,75.1 -128,56.6 -160.2,75.1 -159.1,75.8 		"/>
		<polygon class="st10" points="-83.8,75.1 -83.8,89.6 -128,115.2 -128,100.7 		"/>
		<polygon class="st4" points="-172.3,75.1 -172.3,89.6 -128,115.2 -128,100.7 		"/>
		<g class="st5">
			<polygon class="st2" points="-169.3,81.6 -169.3,86.2 -131,108.3 -131,103.7 			"/>
		</g>
		<polygon class="st3" points="-128,99.9 -171.6,74.7 -172.3,75.1 -128,100.7 -83.8,75.1 -84.5,74.7 		"/>
		<polygon class="st2" points="-90.4,85.3 -90.4,87.9 -121.4,105.8 -121.4,103.2 		"/>
		<polygon class="st6" points="-172.3,75.1 -172.3,89.6 -128,115.2 -128,100.7 		"/>
		<polygon class="st7" points="-141,99.9 -149,95.3 -149,96.3 -141,100.9 		"/>
		<polygon class="st7" points="-150.1,94.6 -152.3,93.4 -152.3,94.3 -150.1,95.6 		"/>
		<polygon class="st7" points="-160.3,88.8 -164.8,86.2 -164.8,87.2 -160.3,89.7 		"/>
		<polygon class="st7" points="-156.2,91.1 -159.5,89.3 -159.5,90.2 -156.3,92.1 		"/>
		<polygon class="st7" points="-153.2,92.8 -155.4,91.6 -155.4,92.6 -153.2,93.8 		"/>
		<g>
			<g>
				<polygon class="st7" points="-128,62.9 -129.4,62.1 -128,61.3 -126.6,62.1 				"/>
				<polygon class="st8" points="-125.2,64.6 -126.6,63.7 -125.2,62.9 -123.8,63.7 				"/>
				<polygon class="st9" points="-122.4,66.2 -123.8,65.4 -122.4,64.6 -121,65.4 				"/>
				<polygon class="st7" points="-119.5,67.8 -121,67 -119.5,66.2 -118.1,67 				"/>
				<polygon class="st9" points="-116.7,69.4 -118.1,68.6 -116.7,67.8 -115.3,68.6 				"/>
				<polygon class="st7" points="-113.9,71 -115.3,70.2 -113.9,69.4 -112.5,70.2 				"/>
				<polygon class="st7" points="-111.1,72.7 -112.5,71.9 -111.1,71 -109.7,71.9 				"/>
				<polygon class="st7" points="-108.3,74.3 -109.7,73.5 -108.3,72.7 -106.9,73.5 				"/>
				<polygon class="st8" points="-105.5,75.9 -106.9,75.1 -105.5,74.3 -104.1,75.1 				"/>
			</g>
			<g>
				<polygon class="st7" points="-130.8,64.6 -132.2,63.7 -130.8,62.9 -129.4,63.7 				"/>
				<polygon class="st7" points="-128,66.2 -129.4,65.4 -128,64.6 -126.6,65.4 				"/>
				<polygon class="st7" points="-125.2,67.8 -126.6,67 -125.2,66.2 -123.8,67 				"/>
				<polygon class="st7" points="-122.4,69.4 -123.8,68.6 -122.4,67.8 -121,68.6 				"/>
				<polygon class="st7" points="-119.6,71.1 -121,70.2 -119.6,69.4 -118.2,70.2 				"/>
				<polygon class="st7" points="-116.7,72.7 -118.2,71.9 -116.7,71.1 -115.3,71.9 				"/>
				<polygon class="st7" points="-113.9,74.3 -115.3,73.5 -113.9,72.7 -112.5,73.5 				"/>
				<polygon class="st7" points="-111.1,75.9 -112.5,75.1 -111.1,74.3 -109.7,75.1 				"/>
				<polygon class="st7" points="-108.3,77.5 -109.7,76.7 -108.3,75.9 -106.9,76.7 				"/>
			</g>
			<g>
				<polygon class="st7" points="-133.6,66.2 -135,65.4 -133.6,64.6 -132.2,65.4 				"/>
				<polygon class="st7" points="-130.8,67.8 -132.2,67 -130.8,66.2 -129.4,67 				"/>
				<polygon class="st7" points="-128,69.4 -129.4,68.6 -128,67.8 -126.6,68.6 				"/>
				<polygon class="st8" points="-125.2,71.1 -126.6,70.3 -125.2,69.4 -123.8,70.3 				"/>
				<polygon class="st9" points="-122.4,72.7 -123.8,71.9 -122.4,71.1 -121,71.9 				"/>
				<polygon class="st9" points="-119.6,74.3 -121,73.5 -119.6,72.7 -118.2,73.5 				"/>
				<polygon class="st7" points="-116.8,75.9 -118.2,75.1 -116.8,74.3 -115.4,75.1 				"/>
				<polygon class="st7" points="-113.9,77.6 -115.4,76.7 -113.9,75.9 -112.5,76.7 				"/>
				<polygon class="st7" points="-111.1,79.2 -112.5,78.4 -111.1,77.6 -109.7,78.4 				"/>
			</g>
			<g>
				<polygon class="st9" points="-136.5,67.8 -137.9,67 -136.5,66.2 -135,67 				"/>
				<polygon class="st9" points="-133.6,69.4 -135,68.6 -133.6,67.8 -132.2,68.6 				"/>
				<polygon class="st8" points="-130.8,71.1 -132.2,70.3 -130.8,69.4 -129.4,70.3 				"/>
				<polygon class="st7" points="-128,72.7 -129.4,71.9 -128,71.1 -126.6,71.9 				"/>
				<polygon class="st7" points="-125.2,74.3 -126.6,73.5 -125.2,72.7 -123.8,73.5 				"/>
				<polygon class="st7" points="-122.4,75.9 -123.8,75.1 -122.4,74.3 -121,75.1 				"/>
				<polygon class="st9" points="-119.6,77.6 -121,76.8 -119.6,75.9 -118.2,76.8 				"/>
				<polygon class="st7" points="-116.8,79.2 -118.2,78.4 -116.8,77.6 -115.4,78.4 				"/>
				<polygon class="st7" points="-114,80.8 -115.4,80 -114,79.2 -112.6,80 				"/>
			</g>
			<g>
				<polygon class="st7" points="-139.3,69.5 -140.7,68.6 -139.3,67.8 -137.9,68.6 				"/>
				<polygon class="st7" points="-136.5,71.1 -137.9,70.3 -136.5,69.5 -135.1,70.3 				"/>
				<polygon class="st7" points="-133.7,72.7 -135.1,71.9 -133.7,71.1 -132.2,71.9 				"/>
				<polygon class="st7" points="-130.8,74.3 -132.2,73.5 -130.8,72.7 -129.4,73.5 				"/>
				<polygon class="st7" points="-128,75.9 -129.4,75.1 -128,74.3 -126.6,75.1 				"/>
				<polygon class="st7" points="-125.2,77.6 -126.6,76.8 -125.2,75.9 -123.8,76.8 				"/>
				<polygon class="st7" points="-122.4,79.2 -123.8,78.4 -122.4,77.6 -121,78.4 				"/>
				<polygon class="st7" points="-119.6,80.8 -121,80 -119.6,79.2 -118.2,80 				"/>
				<polygon class="st7" points="-116.8,82.4 -118.2,81.6 -116.8,80.8 -115.4,81.6 				"/>
			</g>
			<g>
				<polygon class="st7" points="-142.1,71.1 -143.5,70.3 -142.1,69.5 -140.7,70.3 				"/>
				<polygon class="st7" points="-139.3,72.7 -140.7,71.9 -139.3,71.1 -137.9,71.9 				"/>
				<polygon class="st9" points="-136.5,74.3 -137.9,73.5 -136.5,72.7 -135.1,73.5 				"/>
				<polygon class="st7" points="-133.7,76 -135.1,75.1 -133.7,74.3 -132.3,75.1 				"/>
				<polygon class="st8" points="-130.9,77.6 -132.3,76.8 -130.9,76 -129.4,76.8 				"/>
				<polygon class="st7" points="-128,79.2 -129.4,78.4 -128,77.6 -126.6,78.4 				"/>
				<polygon class="st7" points="-125.2,80.8 -126.6,80 -125.2,79.2 -123.8,80 				"/>
				<polygon class="st7" points="-122.4,82.4 -123.8,81.6 -122.4,80.8 -121,81.6 				"/>
				<polygon class="st7" points="-119.6,84.1 -121,83.3 -119.6,82.4 -118.2,83.3 				"/>
			</g>
			<g>
				<polygon class="st7" points="-144.9,72.7 -146.3,71.9 -144.9,71.1 -143.5,71.9 				"/>
				<polygon class="st7" points="-142.1,74.3 -143.5,73.5 -142.1,72.7 -140.7,73.5 				"/>
				<polygon class="st9" points="-139.3,76 -140.7,75.1 -139.3,74.3 -137.9,75.1 				"/>
				<polygon class="st7" points="-136.5,77.6 -137.9,76.8 -136.5,76 -135.1,76.8 				"/>
				<polygon class="st7" points="-133.7,79.2 -135.1,78.4 -133.7,77.6 -132.3,78.4 				"/>
				<polygon class="st8" points="-130.9,80.8 -132.3,80 -130.9,79.2 -129.5,80 				"/>
				<polygon class="st9" points="-128.1,82.5 -129.5,81.6 -128.1,80.8 -126.6,81.6 				"/>
				<polygon class="st7" points="-125.2,84.1 -126.6,83.3 -125.2,82.5 -123.8,83.3 				"/>
				<polygon class="st8" points="-122.4,85.7 -123.8,84.9 -122.4,84.1 -121,84.9 				"/>
			</g>
			<g>
				<polygon class="st7" points="-147.7,74.3 -149.2,73.5 -147.7,72.7 -146.3,73.5 				"/>
				<polygon class="st9" points="-144.9,76 -146.3,75.2 -144.9,74.3 -143.5,75.2 				"/>
				<polygon class="st7" points="-142.1,77.6 -143.5,76.8 -142.1,76 -140.7,76.8 				"/>
				<polygon class="st7" points="-139.3,79.2 -140.7,78.4 -139.3,77.6 -137.9,78.4 				"/>
				<polygon class="st7" points="-136.5,80.8 -137.9,80 -136.5,79.2 -135.1,80 				"/>
				<polygon class="st7" points="-133.7,82.5 -135.1,81.6 -133.7,80.8 -132.3,81.6 				"/>
				<polygon class="st7" points="-130.9,84.1 -132.3,83.3 -130.9,82.5 -129.5,83.3 				"/>
				<polygon class="st9" points="-128.1,85.7 -129.5,84.9 -128.1,84.1 -126.7,84.9 				"/>
				<polygon class="st7" points="-125.3,87.3 -126.7,86.5 -125.3,85.7 -123.8,86.5 				"/>
			</g>
			<g>
				<polygon class="st7" points="-150.6,76 -152,75.2 -150.6,74.3 -149.2,75.2 				"/>
				<polygon class="st8" points="-147.8,77.6 -149.2,76.8 -147.8,76 -146.4,76.8 				"/>
				<polygon class="st7" points="-144.9,79.2 -146.4,78.4 -144.9,77.6 -143.5,78.4 				"/>
				<polygon class="st7" points="-142.1,80.8 -143.5,80 -142.1,79.2 -140.7,80 				"/>
				<polygon class="st7" points="-139.3,82.5 -140.7,81.7 -139.3,80.8 -137.9,81.7 				"/>
				<polygon class="st7" points="-136.5,84.1 -137.9,83.3 -136.5,82.5 -135.1,83.3 				"/>
				<polygon class="st9" points="-133.7,85.7 -135.1,84.9 -133.7,84.1 -132.3,84.9 				"/>
				<polygon class="st7" points="-130.9,87.3 -132.3,86.5 -130.9,85.7 -129.5,86.5 				"/>
				<polygon class="st7" points="-128.1,89 -129.5,88.1 -128.1,87.3 -126.7,88.1 				"/>
			</g>
		</g>
	</g>
	<g>
		<polygon class="st10" points="-128,76.3 -172.3,50.7 -128,25.1 -83.8,50.7 		"/>
		<polygon class="st2" points="-128,69.3 -160.2,50.7 -128,32.1 -95.8,50.7 		"/>
		<polygon class="st3" points="-128,33.4 -96.9,51.3 -95.8,50.7 -128,32.1 -160.2,50.7 -159.1,51.3 		"/>
		<polygon class="st11" points="-83.8,50.7 -83.8,65.2 -128,90.8 -128,76.3 		"/>
		<polygon class="st4" points="-172.3,50.7 -172.3,65.2 -128,90.8 -128,76.3 		"/>
		<g class="st5">
			<polygon class="st2" points="-169.3,57.2 -169.3,61.8 -131,83.9 -131,79.3 			"/>
		</g>
		<polygon class="st3" points="-128,75.4 -171.6,50.3 -172.3,50.7 -128,76.3 -83.8,50.7 -84.5,50.3 		"/>
		<polygon class="st2" points="-90.4,60.9 -90.4,63.5 -121.4,81.3 -121.4,78.8 		"/>
		<polygon class="st6" points="-172.3,50.7 -172.3,65.2 -128,90.8 -128,76.3 		"/>
		<polygon class="st7" points="-141,75.5 -149,70.9 -149,71.8 -141,76.5 		"/>
		<polygon class="st7" points="-150.1,70.2 -152.3,69 -152.3,69.9 -150.1,71.2 		"/>
		<polygon class="st7" points="-160.3,64.3 -164.8,61.8 -164.8,62.7 -160.3,65.3 		"/>
		<polygon class="st7" points="-156.2,66.7 -159.5,64.8 -159.5,65.8 -156.3,67.6 		"/>
		<polygon class="st7" points="-153.2,68.4 -155.4,67.2 -155.4,68.1 -153.2,69.4 		"/>
		<g>
			<g>
				<polygon class="st7" points="-128,38.5 -129.4,37.7 -128,36.9 -126.6,37.7 				"/>
				<polygon class="st8" points="-125.2,40.1 -126.6,39.3 -125.2,38.5 -123.8,39.3 				"/>
				<polygon class="st9" points="-122.4,41.7 -123.8,40.9 -122.4,40.1 -121,40.9 				"/>
				<polygon class="st7" points="-119.5,43.4 -121,42.6 -119.5,41.7 -118.1,42.6 				"/>
				<polygon class="st9" points="-116.7,45 -118.1,44.2 -116.7,43.4 -115.3,44.2 				"/>
				<polygon class="st7" points="-113.9,46.6 -115.3,45.8 -113.9,45 -112.5,45.8 				"/>
				<polygon class="st7" points="-111.1,48.2 -112.5,47.4 -111.1,46.6 -109.7,47.4 				"/>
				<polygon class="st7" points="-108.3,49.9 -109.7,49.1 -108.3,48.2 -106.9,49.1 				"/>
				<polygon class="st8" points="-105.5,51.5 -106.9,50.7 -105.5,49.9 -104.1,50.7 				"/>
			</g>
			<g>
				<polygon class="st7" points="-130.8,40.1 -132.2,39.3 -130.8,38.5 -129.4,39.3 				"/>
				<polygon class="st7" points="-128,41.8 -129.4,40.9 -128,40.1 -126.6,40.9 				"/>
				<polygon class="st7" points="-125.2,43.4 -126.6,42.6 -125.2,41.8 -123.8,42.6 				"/>
				<polygon class="st7" points="-122.4,45 -123.8,44.2 -122.4,43.4 -121,44.2 				"/>
				<polygon class="st7" points="-119.6,46.6 -121,45.8 -119.6,45 -118.2,45.8 				"/>
				<polygon class="st7" points="-116.7,48.2 -118.2,47.4 -116.7,46.6 -115.3,47.4 				"/>
				<polygon class="st7" points="-113.9,49.9 -115.3,49.1 -113.9,48.2 -112.5,49.1 				"/>
				<polygon class="st7" points="-111.1,51.5 -112.5,50.7 -111.1,49.9 -109.7,50.7 				"/>
				<polygon class="st7" points="-108.3,53.1 -109.7,52.3 -108.3,51.5 -106.9,52.3 				"/>
			</g>
			<g>
				<polygon class="st7" points="-133.6,41.8 -135,40.9 -133.6,40.1 -132.2,40.9 				"/>
				<polygon class="st7" points="-130.8,43.4 -132.2,42.6 -130.8,41.8 -129.4,42.6 				"/>
				<polygon class="st7" points="-128,45 -129.4,44.2 -128,43.4 -126.6,44.2 				"/>
				<polygon class="st8" points="-125.2,46.6 -126.6,45.8 -125.2,45 -123.8,45.8 				"/>
				<polygon class="st9" points="-122.4,48.3 -123.8,47.4 -122.4,46.6 -121,47.4 				"/>
				<polygon class="st9" points="-119.6,49.9 -121,49.1 -119.6,48.3 -118.2,49.1 				"/>
				<polygon class="st7" points="-116.8,51.5 -118.2,50.7 -116.8,49.9 -115.4,50.7 				"/>
				<polygon class="st7" points="-113.9,53.1 -115.4,52.3 -113.9,51.5 -112.5,52.3 				"/>
				<polygon class="st7" points="-111.1,54.7 -112.5,53.9 -111.1,53.1 -109.7,53.9 				"/>
			</g>
			<g>
				<polygon class="st9" points="-136.5,43.4 -137.9,42.6 -136.5,41.8 -135,42.6 				"/>
				<polygon class="st9" points="-133.6,45 -135,44.2 -133.6,43.4 -132.2,44.2 				"/>
				<polygon class="st8" points="-130.8,46.6 -132.2,45.8 -130.8,45 -129.4,45.8 				"/>
				<polygon class="st7" points="-128,48.3 -129.4,47.4 -128,46.6 -126.6,47.4 				"/>
				<polygon class="st7" points="-125.2,49.9 -126.6,49.1 -125.2,48.3 -123.8,49.1 				"/>
				<polygon class="st7" points="-122.4,51.5 -123.8,50.7 -122.4,49.9 -121,50.7 				"/>
				<polygon class="st9" points="-119.6,53.1 -121,52.3 -119.6,51.5 -118.2,52.3 				"/>
				<polygon class="st7" points="-116.8,54.8 -118.2,53.9 -116.8,53.1 -115.4,53.9 				"/>
				<polygon class="st7" points="-114,56.4 -115.4,55.6 -114,54.8 -112.6,55.6 				"/>
			</g>
			<g>
				<polygon class="st7" points="-139.3,45 -140.7,44.2 -139.3,43.4 -137.9,44.2 				"/>
				<polygon class="st7" points="-136.5,46.6 -137.9,45.8 -136.5,45 -135.1,45.8 				"/>
				<polygon class="st7" points="-133.7,48.3 -135.1,47.5 -133.7,46.6 -132.2,47.5 				"/>
				<polygon class="st7" points="-130.8,49.9 -132.2,49.1 -130.8,48.3 -129.4,49.1 				"/>
				<polygon class="st7" points="-128,51.5 -129.4,50.7 -128,49.9 -126.6,50.7 				"/>
				<polygon class="st7" points="-125.2,53.1 -126.6,52.3 -125.2,51.5 -123.8,52.3 				"/>
				<polygon class="st7" points="-122.4,54.8 -123.8,53.9 -122.4,53.1 -121,53.9 				"/>
				<polygon class="st7" points="-119.6,56.4 -121,55.6 -119.6,54.8 -118.2,55.6 				"/>
				<polygon class="st7" points="-116.8,58 -118.2,57.2 -116.8,56.4 -115.4,57.2 				"/>
			</g>
			<g>
				<polygon class="st7" points="-142.1,46.6 -143.5,45.8 -142.1,45 -140.7,45.8 				"/>
				<polygon class="st7" points="-139.3,48.3 -140.7,47.5 -139.3,46.6 -137.9,47.5 				"/>
				<polygon class="st9" points="-136.5,49.9 -137.9,49.1 -136.5,48.3 -135.1,49.1 				"/>
				<polygon class="st7" points="-133.7,51.5 -135.1,50.7 -133.7,49.9 -132.3,50.7 				"/>
				<polygon class="st8" points="-130.9,53.1 -132.3,52.3 -130.9,51.5 -129.4,52.3 				"/>
				<polygon class="st7" points="-128,54.8 -129.4,54 -128,53.1 -126.6,54 				"/>
				<polygon class="st7" points="-125.2,56.4 -126.6,55.6 -125.2,54.8 -123.8,55.6 				"/>
				<polygon class="st7" points="-122.4,58 -123.8,57.2 -122.4,56.4 -121,57.2 				"/>
				<polygon class="st7" points="-119.6,59.6 -121,58.8 -119.6,58 -118.2,58.8 				"/>
			</g>
			<g>
				<polygon class="st7" points="-144.9,48.3 -146.3,47.5 -144.9,46.7 -143.5,47.5 				"/>
				<polygon class="st7" points="-142.1,49.9 -143.5,49.1 -142.1,48.3 -140.7,49.1 				"/>
				<polygon class="st9" points="-139.3,51.5 -140.7,50.7 -139.3,49.9 -137.9,50.7 				"/>
				<polygon class="st7" points="-136.5,53.2 -137.9,52.3 -136.5,51.5 -135.1,52.3 				"/>
				<polygon class="st7" points="-133.7,54.8 -135.1,54 -133.7,53.2 -132.3,54 				"/>
				<polygon class="st8" points="-130.9,56.4 -132.3,55.6 -130.9,54.8 -129.5,55.6 				"/>
				<polygon class="st9" points="-128.1,58 -129.5,57.2 -128.1,56.4 -126.6,57.2 				"/>
				<polygon class="st7" points="-125.2,59.6 -126.6,58.8 -125.2,58 -123.8,58.8 				"/>
				<polygon class="st8" points="-122.4,61.3 -123.8,60.5 -122.4,59.6 -121,60.5 				"/>
			</g>
			<g>
				<polygon class="st7" points="-147.7,49.9 -149.2,49.1 -147.7,48.3 -146.3,49.1 				"/>
				<polygon class="st9" points="-144.9,51.5 -146.3,50.7 -144.9,49.9 -143.5,50.7 				"/>
				<polygon class="st7" points="-142.1,53.2 -143.5,52.3 -142.1,51.5 -140.7,52.3 				"/>
				<polygon class="st7" points="-139.3,54.8 -140.7,54 -139.3,53.2 -137.9,54 				"/>
				<polygon class="st7" points="-136.5,56.4 -137.9,55.6 -136.5,54.8 -135.1,55.6 				"/>
				<polygon class="st7" points="-133.7,58 -135.1,57.2 -133.7,56.4 -132.3,57.2 				"/>
				<polygon class="st7" points="-130.9,59.7 -132.3,58.8 -130.9,58 -129.5,58.8 				"/>
				<polygon class="st9" points="-128.1,61.3 -129.5,60.5 -128.1,59.7 -126.7,60.5 				"/>
				<polygon class="st7" points="-125.3,62.9 -126.7,62.1 -125.3,61.3 -123.8,62.1 				"/>
			</g>
			<g>
				<polygon class="st7" points="-150.6,51.5 -152,50.7 -150.6,49.9 -149.2,50.7 				"/>
				<polygon class="st8" points="-147.8,53.2 -149.2,52.4 -147.8,51.5 -146.4,52.4 				"/>
				<polygon class="st7" points="-144.9,54.8 -146.4,54 -144.9,53.2 -143.5,54 				"/>
				<polygon class="st7" points="-142.1,56.4 -143.5,55.6 -142.1,54.8 -140.7,55.6 				"/>
				<polygon class="st7" points="-139.3,58 -140.7,57.2 -139.3,56.4 -137.9,57.2 				"/>
				<polygon class="st7" points="-136.5,59.7 -137.9,58.8 -136.5,58 -135.1,58.8 				"/>
				<polygon class="st9" points="-133.7,61.3 -135.1,60.5 -133.7,59.7 -132.3,60.5 				"/>
				<polygon class="st7" points="-130.9,62.9 -132.3,62.1 -130.9,61.3 -129.5,62.1 				"/>
				<polygon class="st7" points="-128.1,64.5 -129.5,63.7 -128.1,62.9 -126.7,63.7 				"/>
			</g>
		</g>
	</g>
</g>
<path class="st0" d="M-147.8,161.8c-0.4,0-0.8-0.1-1.1-0.3l-8.6-5c-0.3-0.2-0.5-0.5-0.5-0.8c0-0.3,0.2-0.7,0.7-0.9l8.2-4.8
	c0.8-0.4,1.9-0.5,2.5-0.1l8.6,5c0.3,0.2,0.5,0.5,0.5,0.8c0,0.3-0.2,0.7-0.7,0.9l-8.2,4.8C-146.8,161.7-147.3,161.8-147.8,161.8z
	 M-147.7,150.2c-0.4,0-0.9,0.1-1.2,0.3l-8.2,4.8c-0.3,0.2-0.5,0.4-0.5,0.6c0,0.2,0.2,0.3,0.3,0.4l8.6,5c0.5,0.3,1.5,0.3,2.2-0.1
	l8.2-4.8c0.3-0.2,0.5-0.4,0.5-0.6c0-0.2-0.2-0.3-0.3-0.4l-8.6-5C-147,150.3-147.3,150.2-147.7,150.2z"/>
<path class="st0" d="M-72.6,138.8c-0.4,0-0.8-0.1-1.1-0.3l-8.6-5c-0.3-0.2-0.5-0.5-0.5-0.8c0-0.4,0.2-0.7,0.7-0.9l8.2-4.8
	c0.8-0.4,1.9-0.5,2.5-0.1l8.6,5c0.3,0.2,0.5,0.5,0.5,0.8c0,0.3-0.2,0.7-0.7,0.9l-8.2,4.8C-71.6,138.6-72.1,138.8-72.6,138.8z
	 M-73.5,138.2c0.5,0.3,1.5,0.3,2.2-0.1l8.2-4.8c0.3-0.2,0.5-0.4,0.5-0.6c0-0.2-0.2-0.3-0.3-0.4l-8.6-5c-0.5-0.3-1.5-0.3-2.2,0.1
	l-8.2,4.8c-0.3,0.2-0.5,0.4-0.5,0.6c0,0.2,0.2,0.3,0.3,0.4L-73.5,138.2z"/>
<path class="st12" d="M277.8,57.7c-0.8,0-1.6-0.2-2.2-0.5L257.9,47c-0.6-0.4-0.9-0.8-0.9-1.4c0-0.6,0.5-1.3,1.3-1.8l17-9.8
	c1.5-0.9,3.8-0.9,5.1-0.2L298,44c0.6,0.4,0.9,0.8,0.9,1.4c0,0.6-0.5,1.3-1.3,1.8l-17,9.8C279.8,57.5,278.8,57.7,277.8,57.7z
	 M278.1,33.7c-0.9,0-1.9,0.2-2.6,0.7l-17,9.8c-0.7,0.4-1.1,0.9-1.1,1.4c0,0.4,0.3,0.8,0.7,1l17.7,10.2c1.2,0.7,3.3,0.6,4.6-0.2
	l17-9.8c0.7-0.4,1.1-0.9,1.1-1.4c0-0.4-0.3-0.8-0.7-1l-17.7-10.2C279.6,33.8,278.8,33.7,278.1,33.7z"/>
<path class="st12" d="M235.6,58.9c-0.4,0-0.8-0.1-1.1-0.2l-8.1-4.7c-0.3-0.2-0.5-0.4-0.5-0.7c0-0.3,0.2-0.7,0.6-0.9l7.8-4.5
	c0.7-0.4,1.8-0.5,2.4-0.1l8.1,4.7c0.3,0.2,0.5,0.4,0.5,0.7c0,0.3-0.2,0.7-0.6,0.9l-7.8,4.5C236.6,58.7,236.1,58.9,235.6,58.9z
	 M234.8,58.3c0.5,0.3,1.4,0.2,2-0.1l7.8-4.5c0.3-0.2,0.4-0.4,0.4-0.5c0-0.2-0.2-0.3-0.3-0.4l-8.1-4.7c-0.5-0.3-1.4-0.2-2,0.1
	l-7.8,4.5c-0.3,0.2-0.4,0.4-0.4,0.5c0,0.2,0.2,0.3,0.3,0.4L234.8,58.3z"/>
<g>
	<path class="st0" d="M66,153.3c-0.7,0-1.4-0.2-2-0.5l-41.5-23.9c-0.3-0.1-0.4-0.4-0.4-0.7c0-0.3,0.2-0.6,0.4-0.7L66,102.4l0.1,0.1
		l43.4,25c0.3,0.1,0.4,0.4,0.4,0.7c0,0.3-0.2,0.6-0.4,0.7L68,152.8C67.3,153.2,66.7,153.3,66,153.3z M66,102.8l-43.3,25
		c-0.1,0.1-0.2,0.2-0.2,0.4s0.1,0.3,0.2,0.4l41.5,23.9c1.1,0.6,2.5,0.6,3.6,0l41.5-23.9c0.1-0.1,0.2-0.2,0.2-0.4
		c0-0.1-0.1-0.3-0.2-0.4L66,102.8z"/>
	<path class="st0" d="M110.6,113.1c-0.8,0-1.6-0.2-2.2-0.5l-17.7-10.2c-0.6-0.4-0.9-0.8-0.9-1.4c0-0.6,0.5-1.3,1.3-1.8l17-9.8
		c1.5-0.9,3.8-0.9,5-0.2l17.7,10.2c0.6,0.4,0.9,0.8,0.9,1.4c0,0.6-0.5,1.3-1.3,1.8l-17,9.8C112.6,112.8,111.6,113.1,110.6,113.1z
		 M110.9,89c-0.9,0-1.9,0.2-2.6,0.7l-17,9.8c-0.7,0.4-1.1,0.9-1.1,1.4c0,0.4,0.3,0.8,0.7,1l17.7,10.2c1.2,0.7,3.3,0.6,4.7-0.2
		l17-9.8c0.7-0.4,1.1-0.9,1.1-1.4c0-0.4-0.3-0.8-0.7-1l-17.7-10.2C112.3,89.2,111.6,89,110.9,89z"/>
	<path class="st0" d="M46.2,170c-0.4,0-0.8-0.1-1.1-0.3l-8.6-5c-0.3-0.2-0.5-0.5-0.5-0.8c0-0.3,0.2-0.7,0.7-0.9l8.2-4.8
		c0.8-0.4,1.9-0.5,2.5-0.1l8.6,5c0.3,0.2,0.5,0.5,0.5,0.8c0,0.3-0.2,0.7-0.7,0.9l-8.2,4.8C47.2,169.9,46.7,170,46.2,170z
		 M46.3,158.3c-0.4,0-0.9,0.1-1.2,0.3l-8.2,4.8c-0.3,0.2-0.5,0.4-0.5,0.6c0,0.2,0.2,0.3,0.3,0.4l8.6,5c0.5,0.3,1.5,0.3,2.2-0.1
		l8.2-4.8c0.3-0.2,0.5-0.4,0.5-0.6c0-0.2-0.2-0.3-0.3-0.4l-8.6-5C47,158.4,46.7,158.3,46.3,158.3z"/>
	<path class="st0" d="M121.4,146.9c-0.4,0-0.8-0.1-1.1-0.3l-8.6-5c-0.3-0.2-0.5-0.5-0.5-0.8c0-0.4,0.2-0.7,0.7-0.9l8.2-4.8
		c0.8-0.4,1.9-0.5,2.5-0.1l8.6,5c0.3,0.2,0.5,0.5,0.5,0.8c0,0.3-0.2,0.7-0.7,0.9l-8.2,4.8C122.4,146.8,121.9,146.9,121.4,146.9z
		 M120.5,146.3c0.5,0.3,1.5,0.3,2.2-0.1l8.2-4.8c0.3-0.2,0.5-0.4,0.5-0.6c0-0.2-0.2-0.3-0.3-0.4l-8.6-5c-0.5-0.3-1.5-0.3-2.2,0.1
		l-8.2,4.8c-0.3,0.2-0.5,0.4-0.5,0.6c0,0.2,0.2,0.3,0.3,0.4L120.5,146.3z"/>
	<g>
		
			<linearGradient id="SVGID_1_" gradientUnits="userSpaceOnUse" x1="-216.748" y1="1270.8478" x2="-216.748" y2="1197.5432" gradientTransform="matrix(0.866 0.5 0 1.1547 273.9954 -1243.0125)">
			<stop  offset="0" style="stop-color:#2D0979"/>
			<stop  offset="1" style="stop-color:#5B04F7"/>
		</linearGradient>
		<path class="st13" d="M102.7,125.5l-32.8-18.9c-1.3-0.7-2.3-2.7-2.3-4.4V23.7c0-1.7,1-2.5,2.3-1.7l32.8,18.9
			c1.3,0.7,2.3,2.7,2.3,4.4v78.5C105,125.5,104,126.3,102.7,125.5z"/>
		<path class="st10" d="M102.7,40.9L69.9,21.9c-0.6-0.3-1.1-0.4-1.5-0.1l0,0L31,43.4l1.8,6.5l34.1,97.2l37.3-21.5c0,0,0,0,0,0l0.1,0
			l0,0c0.5-0.3,0.8-0.9,0.8-1.8V45.3C105,43.6,104,41.6,102.7,40.9z"/>
		<path class="st10" d="M102.7,40.9L69.9,21.9c-0.6-0.3-1.1-0.4-1.5-0.1l0,0L31,43.4l1.8,6.5l9.4,26.7l1.8,1l60.5-34.9
			C103.9,42,103.3,41.3,102.7,40.9z"/>
		<path class="st14" d="M65.3,147.1l-32.8-18.9c-1.3-0.7-2.3-2.7-2.3-4.4V45.3c0-1.7,1-2.5,2.3-1.7l32.8,18.9
			c1.3,0.7,2.3,2.7,2.3,4.4v78.5C67.6,147.1,66.5,147.8,65.3,147.1z"/>
		
			<linearGradient id="SVGID_2_" gradientUnits="userSpaceOnUse" x1="-280.2991" y1="1275.9048" x2="-243.463" y2="1267.5576" gradientTransform="matrix(0.866 0.5 0 1.1547 273.9954 -1243.0125)">
			<stop  offset="0" style="stop-color:#3919BB"/>
			<stop  offset="1" style="stop-color:#6507FA"/>
		</linearGradient>
		<path class="st15" d="M63.2,142.4l-28.7-16.6c-1.1-0.6-2-2.4-2-3.9V49.1c0-1.5,0.9-2.2,2-1.5l28.7,16.6c1.1,0.6,2,2.4,2,3.9v72.9
			C65.2,142.3,64.3,143,63.2,142.4z"/>
		
			<linearGradient id="SVGID_3_" gradientUnits="userSpaceOnUse" x1="-280.2991" y1="1275.9048" x2="-243.463" y2="1267.5576" gradientTransform="matrix(0.866 0.5 0 1.1547 273.9954 -1243.0125)">
			<stop  offset="0" style="stop-color:#3919BB"/>
			<stop  offset="1" style="stop-color:#6507FA"/>
		</linearGradient>
		<path class="st16" d="M63.2,142.4l-28.7-16.6c-1.1-0.6-2-2.4-2-3.9V49.1c0-1.5,0.9-2.2,2-1.5l28.7,16.6c1.1,0.6,2,2.4,2,3.9v72.9
			C65.2,142.3,64.3,143,63.2,142.4z"/>
		<path class="st17" d="M63.2,142.4l-28.7-16.6c-1.1-0.6-2-2.4-2-3.9V49.1c0-1.5,0.9-2.2,2-1.5l28.7,16.6c1.1,0.6,2,2.4,2,3.9v72.9
			C65.2,142.3,64.3,143,63.2,142.4z"/>
		<path class="st18" d="M64.1,141.8l-28.7-16.6c-1.1-0.6-2-2.4-2-3.9V48.5c0-0.5,0.1-0.9,0.3-1.2c-0.7,0-1.2,0.7-1.2,1.8V122
			c0,1.5,0.9,3.2,2,3.9l28.7,16.6c0.7,0.4,1.4,0.3,1.7-0.3C64.7,142.1,64.4,142,64.1,141.8z"/>
	</g>
	<g>
		<g>
			<path class="st17" d="M63.2,108.9l-10.7-6.2l-17,9.8l29.7,17.1v-16.9C65.2,111.3,64.3,109.6,63.2,108.9z"/>
			<path class="st17" d="M63.2,94l-10.7-6.2l-17,9.8l29.7,17.1V97.8C65.2,96.4,64.3,94.6,63.2,94z"/>
			<path class="st17" d="M63.2,79l-10.7-6.2l-17,9.8l29.7,17.1V82.9C65.2,81.4,64.3,79.7,63.2,79z"/>
			<path class="st17" d="M63.2,64.1L52.6,58l-17,9.8l29.7,17.1V68C65.2,66.5,64.3,64.8,63.2,64.1z"/>
			<path class="st17" d="M63.2,64.1L39.6,50.5l-4.1,2.3L65.2,70v-2C65.2,66.5,64.3,64.8,63.2,64.1z"/>
		</g>
		<polygon class="st14" points="65.2,70 35.6,52.8 35.6,62.3 65.2,79.4 		"/>
		<polygon class="st14" points="65.2,84.9 35.6,67.8 35.6,77.2 65.2,94.3 		"/>
		<polygon class="st14" points="65.2,99.8 35.6,82.7 35.6,92.2 65.2,109.3 		"/>
		<polygon class="st14" points="65.2,114.8 35.6,97.6 35.6,107.1 65.2,124.2 		"/>
		<polygon class="st14" points="65.2,129.7 35.6,112.6 35.6,122 65.2,139.2 		"/>
	</g>
	<g>
		<path class="st17" d="M62.6,76L40.3,63.1c-0.6-0.4-1.1-1.3-1.1-2.2v-2.5c0-0.8,0.5-1.2,1.1-0.9l22.3,12.9c0.6,0.4,1.1,1.3,1.1,2.2
			v2.5C63.8,76,63.2,76.4,62.6,76z"/>
		<path class="st19" d="M41.4,62.7c-0.6-0.4-1.1-1.3-1.1-2.2v-2.5c0-0.1,0-0.3,0-0.4l0,0c-0.6-0.4-1.1,0-1.1,0.9V61
			c0,0.8,0.5,1.8,1.1,2.2L62.6,76c0.5,0.3,1,0.1,1.1-0.5L41.4,62.7z"/>
		<path class="st3" d="M55.6,69.1l-13.4-7.8c-0.2-0.1-0.4-0.5-0.4-0.8l0,0c0-0.3,0.2-0.4,0.4-0.3L55.6,68c0.2,0.1,0.4,0.5,0.4,0.8
			l0,0C56,69.1,55.8,69.2,55.6,69.1z"/>
	</g>
	<g>
		<path class="st17" d="M62.6,90.9L40.3,78c-0.6-0.4-1.1-1.3-1.1-2.2v-2.5c0-0.8,0.5-1.2,1.1-0.9l22.3,12.9c0.6,0.4,1.1,1.3,1.1,2.2
			V90C63.8,90.9,63.2,91.3,62.6,90.9z"/>
		<path class="st19" d="M41.4,77.5c-0.6-0.4-1.1-1.3-1.1-2.2v-2.5c0-0.1,0-0.3,0-0.4l0,0c-0.6-0.4-1.1,0-1.1,0.9v2.5
			c0,0.8,0.5,1.8,1.1,2.2l22.3,12.9c0.5,0.3,1,0.1,1.1-0.5L41.4,77.5z"/>
		<path class="st3" d="M55.6,84l-13.4-7.8c-0.2-0.1-0.4-0.5-0.4-0.8l0,0c0-0.3,0.2-0.4,0.4-0.3l13.4,7.8c0.2,0.1,0.4,0.5,0.4,0.8
			l0,0C56,84,55.8,84.1,55.6,84z"/>
	</g>
	<g>
		<path class="st17" d="M62.6,105.9L40.3,93c-0.6-0.4-1.1-1.3-1.1-2.2v-2.5c0-0.8,0.5-1.2,1.1-0.9l22.3,12.9
			c0.6,0.4,1.1,1.3,1.1,2.2v2.5C63.8,105.8,63.2,106.2,62.6,105.9z"/>
		<path class="st19" d="M41.4,92.5c-0.6-0.4-1.1-1.3-1.1-2.2v-2.5c0-0.1,0-0.3,0-0.4l0,0c-0.6-0.4-1.1,0-1.1,0.9v2.5
			c0,0.8,0.5,1.8,1.1,2.2l22.3,12.9c0.5,0.3,1,0.1,1.1-0.5L41.4,92.5z"/>
		<path class="st20" d="M55.6,98.9l-13.4-7.8c-0.2-0.1-0.4-0.5-0.4-0.8l0,0c0-0.3,0.2-0.4,0.4-0.3l13.4,7.8c0.2,0.1,0.4,0.5,0.4,0.8
			l0,0C56,98.9,55.8,99.1,55.6,98.9z"/>
	</g>
	<g>
		<path class="st17" d="M62.6,121l-22.3-12.9c-0.6-0.4-1.1-1.3-1.1-2.2v-2.5c0-0.8,0.5-1.2,1.1-0.9l22.3,12.9
			c0.6,0.4,1.1,1.3,1.1,2.2v2.5C63.8,121,63.2,121.4,62.6,121z"/>
		<path class="st19" d="M41.4,107.6c-0.6-0.4-1.1-1.3-1.1-2.2v-2.5c0-0.1,0-0.3,0-0.4l0,0c-0.6-0.4-1.1,0-1.1,0.9v2.5
			c0,0.8,0.5,1.8,1.1,2.2L62.6,121c0.5,0.3,1,0.1,1.1-0.5L41.4,107.6z"/>
		<path class="st21" d="M55.6,114.1l-13.4-7.8c-0.2-0.1-0.4-0.5-0.4-0.8l0,0c0-0.3,0.2-0.4,0.4-0.3l13.4,7.8
			c0.2,0.1,0.4,0.5,0.4,0.8l0,0C56,114.1,55.8,114.2,55.6,114.1z"/>
	</g>
	<g>
		<path class="st17" d="M62.6,135.8l-22.3-12.9c-0.6-0.4-1.1-1.3-1.1-2.2v-2.5c0-0.8,0.5-1.2,1.1-0.9l22.3,12.9
			c0.6,0.4,1.1,1.3,1.1,2.2v2.5C63.8,135.8,63.2,136.2,62.6,135.8z"/>
		<path class="st19" d="M41.4,122.4c-0.6-0.4-1.1-1.3-1.1-2.2v-2.5c0-0.1,0-0.3,0-0.4l0,0c-0.6-0.4-1.1,0-1.1,0.9v2.5
			c0,0.8,0.5,1.8,1.1,2.2l22.3,12.9c0.5,0.3,1,0.1,1.1-0.5L41.4,122.4z"/>
		<path class="st20" d="M55.6,128.9l-13.4-7.8c-0.2-0.1-0.4-0.5-0.4-0.8l0,0c0-0.3,0.2-0.4,0.4-0.3l13.4,7.8
			c0.2,0.1,0.4,0.5,0.4,0.8l0,0C56,128.9,55.8,129,55.6,128.9z"/>
	</g>
	<polygon class="st22" points="35.6,52.8 37.9,54.2 37.9,63.6 35.6,62.3 	"/>
	<polygon class="st22" points="35.6,67.8 37.9,69.1 37.9,78.6 35.6,77.2 	"/>
	<polygon class="st22" points="35.6,82.7 37.9,84.1 37.9,93.5 35.6,92.2 	"/>
	<polygon class="st22" points="35.6,97.6 37.9,99 37.9,108.4 35.6,107.1 	"/>
	<polygon class="st22" points="35.6,112.6 37.9,113.9 37.9,123.4 35.6,122 	"/>
	<path class="st20" d="M58.2,70c0,0.3-0.2,0.4-0.5,0.3c-0.3-0.2-0.5-0.5-0.5-0.8c0-0.3,0.2-0.4,0.5-0.3C58,69.4,58.2,69.7,58.2,70z"
		/>
	<path class="st21" d="M60.3,71.2c0,0.3-0.2,0.4-0.5,0.3c-0.3-0.2-0.5-0.5-0.5-0.8s0.2-0.4,0.5-0.3C60,70.5,60.3,70.9,60.3,71.2z"/>
	<path class="st20" d="M62.3,72.4c0,0.3-0.2,0.4-0.5,0.3c-0.3-0.2-0.5-0.5-0.5-0.8c0-0.3,0.2-0.4,0.5-0.3
		C62,71.7,62.3,72.1,62.3,72.4z"/>
	<path class="st21" d="M58.2,85c0,0.3-0.2,0.4-0.5,0.3c-0.3-0.2-0.5-0.5-0.5-0.8c0-0.3,0.2-0.4,0.5-0.3C58,84.3,58.2,84.7,58.2,85z"
		/>
	<path class="st20" d="M60.3,86.1c0,0.3-0.2,0.4-0.5,0.3c-0.3-0.2-0.5-0.5-0.5-0.8s0.2-0.4,0.5-0.3C60,85.5,60.3,85.8,60.3,86.1z"/>
	<path class="st3" d="M62.3,87.3c0,0.3-0.2,0.4-0.5,0.3c-0.3-0.2-0.5-0.5-0.5-0.8c0-0.3,0.2-0.4,0.5-0.3C62,86.6,62.3,87,62.3,87.3z
		"/>
	<path class="st3" d="M58.2,100c0,0.3-0.2,0.4-0.5,0.3c-0.3-0.2-0.5-0.5-0.5-0.8c0-0.3,0.2-0.4,0.5-0.3C58,99.3,58.2,99.7,58.2,100z
		"/>
	<path class="st21" d="M60.3,101.2c0,0.3-0.2,0.4-0.5,0.3c-0.3-0.2-0.5-0.5-0.5-0.8s0.2-0.4,0.5-0.3C60,100.5,60.3,100.9,60.3,101.2
		z"/>
	<path class="st3" d="M62.3,102.3c0,0.3-0.2,0.4-0.5,0.3c-0.3-0.2-0.5-0.5-0.5-0.8c0-0.3,0.2-0.4,0.5-0.3
		C62,101.7,62.3,102,62.3,102.3z"/>
	<path class="st3" d="M58.2,114.8c0,0.3-0.2,0.4-0.5,0.3c-0.3-0.2-0.5-0.5-0.5-0.8c0-0.3,0.2-0.4,0.5-0.3
		C58,114.2,58.2,114.5,58.2,114.8z"/>
	<path class="st20" d="M60.3,116c0,0.3-0.2,0.4-0.5,0.3c-0.3-0.2-0.5-0.5-0.5-0.8s0.2-0.4,0.5-0.3C60,115.3,60.3,115.7,60.3,116z"/>
	<path class="st20" d="M62.3,117.2c0,0.3-0.2,0.4-0.5,0.3c-0.3-0.2-0.5-0.5-0.5-0.8c0-0.3,0.2-0.4,0.5-0.3
		C62,116.5,62.3,116.9,62.3,117.2z"/>
	<path class="st3" d="M58.2,129.9c0,0.3-0.2,0.4-0.5,0.3c-0.3-0.2-0.5-0.5-0.5-0.8c0-0.3,0.2-0.4,0.5-0.3
		C58,129.2,58.2,129.6,58.2,129.9z"/>
	<path class="st21" d="M60.3,131c0,0.3-0.2,0.4-0.5,0.3c-0.3-0.2-0.5-0.5-0.5-0.8c0-0.3,0.2-0.4,0.5-0.3
		C60,130.4,60.3,130.7,60.3,131z"/>
	<path class="st20" d="M62.3,132.2c0,0.3-0.2,0.4-0.5,0.3c-0.3-0.2-0.5-0.5-0.5-0.8c0-0.3,0.2-0.4,0.5-0.3
		C62,131.5,62.3,131.9,62.3,132.2z"/>
	<g>
		<path class="st17" d="M72.5,136.5V69.7l0.1-0.1l27.9-16.1v66.8l-0.1,0.1L72.5,136.5z M73.1,70v65.6l27-15.6V54.4L73.1,70z"/>
	</g>
	<g>
		<path class="st17" d="M93.3,83.5l-12.5,7.2c-0.8,0.5-1.5,0-1.5-1.2v-6.9c0-1.1,0.7-2.4,1.5-2.9l12.5-7.2c0.8-0.5,1.5,0,1.5,1.2
			v6.9C94.9,81.7,94.2,83.1,93.3,83.5z"/>
		<path class="st14" d="M93.6,72.4c0.1,0.2,0.1,0.4,0.1,0.7V80c0,1.1-0.7,2.4-1.5,2.9l-12.5,7.2c-0.1,0.1-0.2,0.1-0.3,0.1
			c0.2,0.6,0.8,0.8,1.4,0.5l12.5-7.2c0.8-0.5,1.5-1.8,1.5-2.9v-6.9C94.9,72.7,94.3,72.2,93.6,72.4z"/>
		<g>
			<g>
				<path class="st3" d="M91,79.4c0.2-0.1,0.4,0,0.4,0.2v1.6c0,0.3-0.2,0.6-0.4,0.7s-0.4,0-0.4-0.2v-1.6
					C90.6,79.8,90.8,79.5,91,79.4z"/>
				<path class="st20" d="M89.3,80.6c0.2-0.1,0.4,0,0.4,0.2v1.4c0,0.3-0.2,0.6-0.4,0.7c-0.2,0.1-0.4,0-0.4-0.2v-1.4
					C88.8,81,89,80.7,89.3,80.6z"/>
				<path class="st21" d="M87.5,80.1c0.2-0.1,0.4,0,0.4,0.2v2.9c0,0.3-0.2,0.6-0.4,0.7S87,84,87,83.7v-2.9
					C87,80.5,87.2,80.2,87.5,80.1z"/>
				<path class="st20" d="M85.7,79.4c0.2-0.1,0.4,0,0.4,0.2v4.6c0,0.3-0.2,0.6-0.4,0.7s-0.4,0-0.4-0.2v-4.6
					C85.2,79.9,85.4,79.6,85.7,79.4z"/>
				<path class="st20" d="M83.9,81c0.2-0.1,0.4,0,0.4,0.2v4.1c0,0.3-0.2,0.6-0.4,0.7s-0.4,0-0.4-0.2v-4.1
					C83.4,81.4,83.6,81.1,83.9,81z"/>
				<path class="st3" d="M82.1,83.9c0.2-0.1,0.4,0,0.4,0.2v2.2c0,0.3-0.2,0.6-0.4,0.7c-0.2,0.1-0.4,0-0.4-0.2v-2.2
					C81.6,84.3,81.8,84,82.1,83.9z"/>
			</g>
			<path class="st21" d="M90.6,78.6c0,0.3,0.2,0.4,0.4,0.2c0.2-0.1,0.4-0.5,0.4-0.7c0-0.3-0.2-0.4-0.4-0.2
				C90.8,78,90.6,78.3,90.6,78.6z"/>
			<path class="st3" d="M90.6,77.1c0,0.3,0.2,0.4,0.4,0.2c0.2-0.1,0.4-0.5,0.4-0.7c0-0.3-0.2-0.4-0.4-0.2
				C90.8,76.5,90.6,76.8,90.6,77.1z"/>
		</g>
	</g>
</g>
</svg>
